<svg width="126" height="30" viewBox="0 0 126 30" fill="none" xmlns="http://www.w3.org/2000/svg">
<path d="M56.9375 17.2419V8.94859H59.0697V22.9777H56.9375V20.603H56.7929C56.4677 21.3154 55.9618 21.9213 55.2751 22.4206C54.5885 22.9138 53.7212 23.1604 52.6732 23.1604C51.8059 23.1604 51.0349 22.9686 50.3603 22.585C49.6858 22.1953 49.1557 21.6107 48.7702 20.8313C48.3848 20.0459 48.192 19.0564 48.192 17.8629V8.94859H50.3242V17.7168C50.3242 18.7398 50.6073 19.5557 51.1734 20.1646C51.7456 20.7735 52.4744 21.0779 53.3598 21.0779C53.8898 21.0779 54.4289 20.9409 54.977 20.6669C55.5311 20.3929 55.9949 19.9728 56.3683 19.4065C56.7478 18.8402 56.9375 18.1187 56.9375 17.2419Z" fill="white"/>
<path d="M65.107 14.5383V22.9777H62.9748V8.94859H65.0347V11.1406H65.2154C65.5407 10.4282 66.0346 9.85585 66.6971 9.42353C67.3596 8.98512 68.2149 8.76591 69.2629 8.76591C70.2025 8.76591 71.0247 8.96076 71.7293 9.35046C72.434 9.73407 72.9821 10.3186 73.3736 11.1041C73.7651 11.8835 73.9609 12.8699 73.9609 14.0634V22.9777H71.8287V14.2095C71.8287 13.1074 71.5456 12.2488 70.9795 11.6339C70.4133 11.0128 69.6363 10.7022 68.6486 10.7022C67.968 10.7022 67.3596 10.8514 66.8236 11.1498C66.2935 11.4481 65.8749 11.8835 65.5678 12.4559C65.2606 13.0282 65.107 13.7224 65.107 14.5383Z" fill="white"/>
<path d="M83.4946 23.27C82.2418 23.27 81.1426 22.9686 80.197 22.3658C79.2574 21.763 78.5226 20.9196 77.9926 19.8358C77.4686 18.7519 77.2066 17.4854 77.2066 16.0362C77.2066 14.5749 77.4686 13.2992 77.9926 12.2093C78.5226 11.1193 79.2574 10.273 80.197 9.67014C81.1426 9.06732 82.2418 8.76591 83.4946 8.76591C84.7474 8.76591 85.8436 9.06732 86.7832 9.67014C87.7288 10.273 88.4636 11.1193 88.9876 12.2093C89.5177 13.2992 89.7827 14.5749 89.7827 16.0362C89.7827 17.4854 89.5177 18.7519 88.9876 19.8358C88.4636 20.9196 87.7288 21.763 86.7832 22.3658C85.8436 22.9686 84.7474 23.27 83.4946 23.27ZM83.4946 21.3337C84.4463 21.3337 85.2293 21.0871 85.8436 20.5939C86.458 20.1007 86.9127 19.4522 87.2078 18.6484C87.503 17.8447 87.6505 16.9739 87.6505 16.0362C87.6505 15.0985 87.503 14.2247 87.2078 13.4149C86.9127 12.6051 86.458 11.9505 85.8436 11.4512C85.2293 10.9519 84.4463 10.7022 83.4946 10.7022C82.543 10.7022 81.76 10.9519 81.1456 11.4512C80.5313 11.9505 80.0765 12.6051 79.7814 13.4149C79.4863 14.2247 79.3387 15.0985 79.3387 16.0362C79.3387 16.9739 79.4863 17.8447 79.7814 18.6484C80.0765 19.4522 80.5313 20.1007 81.1456 20.5939C81.76 21.0871 82.543 21.3337 83.4946 21.3337Z" fill="white"/>
<path d="M93.0374 22.9777V8.94859H95.0973V11.1406H95.278C95.5671 10.3917 96.0338 9.81018 96.6783 9.39613C97.3228 8.97599 98.0967 8.76591 99.0002 8.76591C99.9157 8.76591 100.678 8.97599 101.286 9.39613C101.9 9.81018 102.379 10.3917 102.722 11.1406H102.867C103.222 10.416 103.755 9.84063 104.466 9.4144C105.177 8.98208 106.029 8.76591 107.023 8.76591C108.264 8.76591 109.279 9.15866 110.068 9.94414C110.857 10.7235 111.251 11.9383 111.251 13.5884V22.9777H109.119V13.5884C109.119 12.5533 108.839 11.8135 108.279 11.369C107.719 10.9245 107.059 10.7022 106.3 10.7022C105.324 10.7022 104.568 11.0006 104.032 11.5973C103.496 12.188 103.228 12.9369 103.228 13.8442V22.9777H101.06V13.3692C101.06 12.5716 100.804 11.9292 100.292 11.442C99.7802 10.9488 99.1207 10.7022 98.3136 10.7022C97.7595 10.7022 97.2415 10.8514 96.7596 11.1498C96.2838 11.4481 95.8983 11.8622 95.6032 12.3919C95.3141 12.9156 95.1695 13.5215 95.1695 14.2095V22.9777H93.0374Z" fill="white"/>
<path d="M116.026 28.2387C115.664 28.2387 115.342 28.2082 115.059 28.1473C114.776 28.0925 114.58 28.0377 114.472 27.9829L115.014 26.0831C115.532 26.2171 115.99 26.2658 116.387 26.2293C116.785 26.1927 117.137 26.0131 117.444 25.6904C117.757 25.3738 118.044 24.8592 118.303 24.1468L118.7 23.0508L113.568 8.94859H115.881L119.712 20.1281H119.856L123.687 8.94859H126L120.109 25.0236C119.844 25.7482 119.516 26.348 119.125 26.823C118.733 27.304 118.278 27.6602 117.76 27.8916C117.249 28.123 116.67 28.2387 116.026 28.2387Z" fill="white"/>
<path fill-rule="evenodd" clip-rule="evenodd" d="M39.2026 23.27C37.8655 23.27 36.7121 22.9716 35.7424 22.3749C34.7787 21.7721 34.0349 20.9318 33.5109 19.8541C32.9929 18.7702 32.7339 17.5098 32.7339 16.0728C32.7339 14.6357 32.9929 13.3692 33.5109 12.2732C34.0349 11.1711 34.7637 10.3125 35.6972 9.69754C36.6368 9.07646 37.733 8.76591 38.9858 8.76591C39.7086 8.76591 40.4223 8.8877 41.127 9.13126C41.8317 9.37482 42.4732 9.77061 43.0514 10.3186C43.6296 10.8605 44.0903 11.579 44.4337 12.4741C44.777 13.3692 44.9486 14.4713 44.9486 15.7805V16.6938H34.8708C34.9013 17.6272 35.0804 18.4279 35.4081 19.096C35.7755 19.8267 36.2845 20.3838 36.935 20.7674C37.5855 21.1449 38.3413 21.3337 39.2026 21.3337C39.7628 21.3337 40.2687 21.2545 40.7204 21.0962C41.1782 20.9318 41.5727 20.6882 41.904 20.3655C42.2352 20.0367 42.4912 19.6288 42.6719 19.1416L44.7318 19.7262C44.515 20.4325 44.1506 21.0536 43.6386 21.5894C43.1267 22.1192 42.4942 22.5332 41.7414 22.8316C40.9885 23.1239 40.1422 23.27 39.2026 23.27ZM42.3105 12.7116C42.6237 13.3327 42.7803 14.039 42.7803 14.8306H34.8762C34.9168 14.1798 35.0791 13.5648 35.3629 12.9856C35.6942 12.3097 36.167 11.7617 36.7814 11.3416C37.4017 10.9153 38.1366 10.7022 38.9858 10.7022C39.7568 10.7022 40.4253 10.8819 40.9915 11.2411C41.5637 11.6004 42.0034 12.0905 42.3105 12.7116Z" fill="white"/>
<path d="M0.598261 6.53977L0.565918 2.56713L3.83249 1.50449L3.73547 2.3219L1.22894 3.04123L1.26128 6.29455L0.598261 6.53977Z" fill="#2E79B9"/>
<path d="M0.048514 7.37377L0 2.15865L4.51175 0.687302L4.25301 2.77989L1.795 3.48287L1.82734 6.67079L0.048514 7.37377Z" fill="#2E79B9"/>
<path d="M28.0405 12.8506L27.3775 13.3574L27.4421 3.0579L23.6904 1.89717L24.5637 1.37402L28.1052 2.56745L28.0405 12.8506Z" fill="#2E79B9"/>
<path d="M26.812 14.5182L26.8767 3.46675L22.3164 2.0608L24.4995 0.75293L28.6717 2.15889L28.5908 13.1286L26.812 14.5182Z" fill="#2E79B9"/>
<path d="M14.6349 29.4117L13.0825 29.0357L13.6 28.4472L14.5864 28.7088L16.1874 28.0385L16.9959 28.4799L14.6349 29.4117Z" fill="#2E79B9"/>
<path d="M14.6671 30.0002L12.0474 29.3789L13.4057 27.7931L14.5377 28.1038L16.2357 27.4008L18.3056 28.5779L14.6671 30.0002Z" fill="#2E79B9"/>
<path d="M10.8832 28.0874C10.6729 28.0874 10.4627 28.022 10.301 27.8912C3.58998 22.8232 0.582147 17.085 0.549805 9.2868C0.549805 8.73096 0.986426 8.28955 1.53624 8.28955C2.08606 8.28955 2.52269 8.73096 2.52269 9.2868C2.55503 16.4964 5.23944 21.5971 11.4815 26.3054C11.9181 26.6324 12.0152 27.2536 11.6756 27.695C11.4815 27.9566 11.1743 28.0874 10.8832 28.0874Z" fill="white"/>
<path d="M23.9662 6.4585C24.1441 6.4585 24.322 6.50754 24.4998 6.60563C24.9526 6.8999 25.0982 7.52114 24.8071 7.97889C23.6589 9.8099 21.6699 11.3303 19.3412 12.1804C18.8238 12.3602 18.2578 12.0987 18.0799 11.5755C17.902 11.0524 18.1607 10.4802 18.6782 10.3004C20.6026 9.59738 22.2359 8.37125 23.1415 6.91625C23.3193 6.62198 23.6428 6.4585 23.9662 6.4585Z" fill="white"/>
<path d="M21.1359 25.6677C16.2037 25.3898 11.417 21.9894 8.65175 16.7906C5.95116 11.7063 5.83797 6.13148 8.3445 1.89727C8.61941 1.42316 8.47386 0.818275 8.0049 0.524005C7.53594 0.246083 6.93761 0.393218 6.64653 0.86732C3.78423 5.72277 3.89743 12.0332 6.92143 17.7388C9.65436 22.8722 14.1823 26.4361 19.066 27.417L21.1359 25.6677Z" fill="white"/>
<path d="M16.4139 19.2428C14.1337 17.7224 12.3549 15.3846 11.417 12.6708C10.5114 10.0387 10.4629 7.22677 11.3038 4.75817C11.6919 3.61379 12.2579 2.55115 13.0018 1.5866C13.5031 0.932664 13.0341 -0.0318868 12.1932 0.000809874C12.177 0.000809874 12.177 0.000809874 12.1609 0.000809874C11.8698 0.0171582 11.611 0.147944 11.4332 0.376821C10.5599 1.50486 9.88072 2.76368 9.42793 4.12059C8.44149 7.01424 8.49 10.2839 9.54113 13.341C11.2714 18.3436 16.0096 23.1664 22.6883 23.1664C22.9308 23.1664 23.1734 23.15 23.416 23.15L23.4968 22.9539L24.9037 21.0738L24.8876 20.9757C21.8474 21.5152 18.9042 20.9103 16.4139 19.2428Z" fill="white"/>
<path d="M27.3128 15.6624C22.4937 18.4743 18.5965 17.379 15.7342 12.3927C14.6507 10.3655 14.3111 7.97868 15.4108 5.98418C16.5751 3.87525 17.8688 2.53468 18.9846 1.68457C19.6476 1.17777 19.3242 0.115131 18.4995 0.0660863C18.4833 0.0660863 18.4833 0.0660863 18.4671 0.0660863C18.2892 0.049738 18.0952 0.0987822 17.9497 0.196872C15.9768 1.43935 14.4567 3.15592 13.5996 5.19946C12.4838 7.88059 12.6293 10.7742 14.0201 13.3573L14.0362 13.3736C16.5751 17.804 19.6315 19.1773 22.4291 19.1773C23.8683 19.1773 25.2267 18.8176 26.4072 18.3435L27.3128 15.6624Z" fill="white"/>
</svg>
