<svg width="99" height="101" viewBox="0 0 99 101" fill="none" xmlns="http://www.w3.org/2000/svg">
<g clip-path="url(#clip0_21_703)">
<path d="M4.9117 6.3948L4.73047 -9.64457L18.1193 -13.9263L17.6888 -10.5961L7.42635 -7.69629L7.60758 5.37535L4.9117 6.3948Z" fill="#2E79B9"/>
<path d="M2.66912 9.72524L2.41992 -11.3208L20.838 -17.2109L19.7733 -8.80613L9.75997 -5.97432L9.91856 6.93874L2.66912 9.72524Z" fill="#2E79B9"/>
<path d="M111.773 38.5416L112.067 -5.97449L93.4229 -11.6608L102.349 -16.9619L119.362 -11.321L119.068 32.9459L111.773 38.5416Z" fill="#2E79B9"/>
<path d="M62.1141 98.599L55.7935 97.1264L57.8777 94.7251L61.9102 95.7898L68.48 93.0713L71.7196 94.861L62.1141 98.599Z" fill="#2E79B9"/>
<path d="M62.2954 101L51.5571 98.5083L57.0848 92.1424L61.7516 93.3884L68.6386 90.5112L77.1114 95.246L62.2954 101Z" fill="#2E79B9"/>
<path d="M46.8231 93.3203C45.9849 93.3203 45.1466 93.0485 44.4217 92.5274C17.0777 72.0931 4.82167 48.9402 4.66309 17.4505C4.66309 15.2303 6.45279 13.418 8.67293 13.418H8.69559C10.9157 13.418 12.7054 15.2077 12.7281 17.4278C12.864 46.5162 23.7835 67.0638 49.2471 86.0935C51.0368 87.4302 51.3993 89.9448 50.0627 91.7345C49.2471 92.754 48.0464 93.3203 46.8231 93.3203Z" fill="#1A3967"/>
<path d="M100.151 6.03247C100.876 6.03247 101.624 6.23637 102.304 6.6668C104.184 7.84483 104.728 10.3368 103.55 12.2171C98.8827 19.5799 90.7724 25.7419 81.2575 29.14C79.1733 29.8876 76.8626 28.8002 76.115 26.716C75.3674 24.6318 76.4548 22.321 78.539 21.5734C86.3775 18.7643 93.0152 13.803 96.7305 7.93545C97.5235 6.68945 98.8148 6.03247 100.151 6.03247Z" fill="#1A3967"/>
<path d="M88.6426 83.4883C68.5028 82.3782 49.0199 68.6722 37.738 47.6715C26.7279 27.1692 26.2522 4.71865 36.4467 -12.4308C37.5794 -14.3338 36.9451 -16.8031 35.0421 -17.9358C33.1391 -19.0686 30.6698 -18.4569 29.5371 -16.5313C17.8927 3.04222 18.3004 28.4832 30.6471 51.4775C41.7705 72.2063 60.2339 86.5693 80.1925 90.5112L88.6426 83.4883Z" fill="#1A3967"/>
<path d="M69.3861 57.6393C60.0751 51.5 52.8483 42.0984 49.0423 31.1562C45.327 20.5313 45.1684 9.20405 48.5892 -0.763922C50.1751 -5.36278 52.5085 -9.66713 55.5442 -13.5637C57.6057 -16.2369 55.6574 -20.1108 52.2593 -19.9976C52.214 -19.9976 52.1913 -19.9976 52.146 -19.9976C50.9906 -19.9523 49.8805 -19.4086 49.1783 -18.5024C45.6215 -13.9262 42.8577 -8.87422 41 -3.41449C36.9901 8.22991 37.1487 21.4375 41.4531 33.7615C48.4986 53.9013 67.8229 73.3842 95.0762 73.3842C96.0504 73.3842 97.0245 73.3615 98.0213 73.2936L98.3611 72.5007L104.07 64.9114L104.002 64.5489C91.5195 66.7464 79.5579 64.3451 69.3861 57.6393Z" fill="#1A3967"/>
<path d="M113.835 43.1858C94.1709 54.5131 78.2901 50.0728 66.6231 29.9783C62.1828 21.7774 60.8235 12.1492 65.2865 4.10686C70.0212 -4.43388 75.345 -9.82565 79.8533 -13.2238C82.5718 -15.2401 81.2579 -19.5671 77.8597 -19.7483C77.8144 -19.7483 77.7691 -19.7483 77.7238 -19.7483C76.9762 -19.7936 76.2286 -19.6124 75.6169 -19.2273C67.5519 -14.2206 61.3446 -7.26569 57.8784 0.980541C53.3249 11.7867 53.9366 23.4764 59.5775 33.8748L59.6228 33.9655C69.9759 51.8625 82.4585 57.3449 93.8537 57.3449C99.6986 57.3449 105.249 55.895 110.097 53.9467L113.835 43.2085V43.1858Z" fill="#1A3967"/>
</g>
<defs>
<clipPath id="clip0_21_703">
<rect width="121" height="121" fill="white" transform="translate(0 -20)"/>
</clipPath>
</defs>
</svg>
