<svg width="105" height="95" viewBox="0 0 105 95" fill="none" xmlns="http://www.w3.org/2000/svg">
<circle cx="45" cy="45" r="45" fill="#EAF2F9"/>
<g clip-path="url(#clip0_21_3208)">
<path d="M101.702 55.0265V55.0012C101.702 54.2978 102.273 53.7274 102.976 53.7274H103.726C104.43 53.7274 105 54.2978 105 55.0012V55.0265C105 55.7298 104.43 56.3002 103.726 56.3002H102.976C102.271 56.3002 101.702 55.7298 101.702 55.0265Z" fill="black"/>
<path d="M26.8945 49.8942V49.869C26.8945 49.1656 27.465 48.5952 28.1683 48.5952H28.6294C29.3327 48.5952 29.9032 49.1656 29.9032 49.869V49.8942C29.9032 50.5976 29.3327 51.168 28.6294 51.168H28.1683C27.4633 51.168 26.8945 50.5976 26.8945 49.8942Z" fill="#EAF2F9"/>
<path d="M25 60.1989V60.1737C25 59.4703 25.5704 58.8999 26.2738 58.8999H29.1579C29.8613 58.8999 30.4317 59.4703 30.4317 60.1737V60.1989C30.4317 60.9023 29.8613 61.4727 29.1579 61.4727H26.2738C25.5704 61.471 25 60.9023 25 60.1989Z" fill="#EAF2F9"/>
<path d="M86.7764 43.4361H94.8029C95.4877 43.4361 96.0447 43.9913 96.0447 44.6779V44.7687C96.0447 45.4536 95.4894 46.0106 94.8029 46.0106H90.5642C89.8793 46.0106 89.3223 46.5659 89.3223 47.2524V47.3433C89.3223 48.0281 89.8776 48.5851 90.5642 48.5851H99.1526C99.8374 48.5851 100.394 49.1404 100.394 49.8269V49.9178C100.394 50.6026 99.8391 51.1596 99.1526 51.1596H93.2262C92.5413 51.1596 91.9844 51.7149 91.9844 52.4014V52.4923C91.9844 53.1771 92.5396 53.7341 93.2262 53.7341H99.1846C99.8694 53.7341 100.426 54.2894 100.426 54.9759V55.0668C100.426 55.7516 99.8711 56.3086 99.1846 56.3086H94.7759C94.0911 56.3086 93.5341 56.8639 93.5341 57.5504V57.6413C93.5341 58.3261 94.0894 58.8831 94.7759 58.8831H101.002C101.687 58.8831 102.244 59.4384 102.244 60.1249V60.2158C102.244 60.9007 101.688 61.4576 101.002 61.4576H90.8334C90.1485 61.4576 89.5916 62.0129 89.5916 62.6995V62.7903C89.5916 63.4752 90.1469 64.0321 90.8334 64.0321H94.5067C95.1916 64.0321 95.7485 64.5874 95.7485 65.274V65.3648C95.7485 66.0497 95.1932 66.6067 94.5067 66.6067H84.8767C84.1918 66.6067 83.6349 67.1619 83.6349 67.8485V67.9393C83.6349 68.6242 84.1901 69.1812 84.8767 69.1812H87.9711C88.656 69.1812 89.213 69.7364 89.213 70.423V70.5139C89.213 71.1987 88.6577 71.7557 87.9711 71.7557H81.3767C80.6918 71.7557 80.1349 72.311 80.1349 72.9975V73.0884C80.1349 73.7732 80.6902 74.3302 81.3767 74.3302H89.7884C90.4733 74.3302 91.0303 74.8855 91.0303 75.572V75.6629C91.0303 76.3477 90.475 76.9047 89.7884 76.9047H71.1443C70.4594 76.9047 69.9024 77.46 69.9024 78.1465V78.2374C69.9024 78.9222 70.4577 79.4792 71.1443 79.4792H81.8596C82.5445 79.4792 83.1014 80.0345 83.1014 80.721V80.8119C83.1014 81.4968 82.5462 82.0537 81.8596 82.0537H62.2597C61.5748 82.0537 61.0179 82.609 61.0179 83.2955V83.3864C61.0179 84.0713 61.5731 84.6282 62.2597 84.6282H63.5082C64.1931 84.6282 64.7501 85.1835 64.7501 85.8701V85.9609C64.7501 86.6458 64.1948 87.2027 63.5082 87.2027H56.7876C56.1027 87.2027 55.5458 86.6475 55.5458 85.9609V85.8701C55.5458 85.1852 56.101 84.6282 56.7876 84.6282H56.8128C57.4977 84.6282 58.0546 84.0729 58.0546 83.3864V83.2955C58.0546 82.6107 57.4994 82.0537 56.8128 82.0537H48.1924C47.5076 82.0537 46.9506 81.4984 46.9506 80.8119V80.721C46.9506 80.0362 47.5059 79.4792 48.1924 79.4792H50.9604C51.6453 79.4792 52.2023 78.9239 52.2023 78.2374V78.1465C52.2023 77.4617 51.647 76.9047 50.9604 76.9047H39.0403C38.3554 76.9047 37.7985 76.3494 37.7985 75.6629V75.572C37.7985 74.8872 38.3537 74.3302 39.0403 74.3302H48.4768C49.1616 74.3302 49.7186 73.7749 49.7186 73.0884V72.9975C49.7186 72.3126 49.1633 71.7557 48.4768 71.7557H46.4323C45.7475 71.7557 45.1905 71.2004 45.1905 70.5139V70.423C45.1905 69.7381 45.7458 69.1812 46.4323 69.1812H49.1263C49.8112 69.1812 50.3681 68.6259 50.3681 67.9393V67.8485C50.3681 67.1636 49.8128 66.6067 49.1263 66.6067H31.4833C30.7985 66.6067 30.2415 66.0514 30.2415 65.3648V65.274C30.2415 64.5891 30.7968 64.0321 31.4833 64.0321H42.0153C42.7001 64.0321 43.2571 63.4769 43.2571 62.7903V62.6995C43.2571 62.0146 42.7018 61.4576 42.0153 61.4576H33.1963C32.5115 61.4576 31.9545 60.9023 31.9545 60.2158V60.1249C31.9545 59.4401 32.5098 58.8831 33.1963 58.8831H36.2302C36.9151 58.8831 37.472 58.3278 37.472 57.6413V57.5504C37.472 56.8656 36.9167 56.3086 36.2302 56.3086H27.3473C26.6624 56.3086 26.1055 55.7533 26.1055 55.0668V54.9759C26.1055 54.2911 26.6608 53.7341 27.3473 53.7341H32.8598C33.5446 53.7341 34.1016 53.1788 34.1016 52.4923V52.4014C34.1016 51.7166 33.5463 51.1596 32.8598 51.1596H32.1699C31.485 51.1596 30.9281 50.6043 30.9281 49.9178V49.8269C30.9281 49.142 31.4833 48.5851 32.1699 48.5851H38.4295C39.1143 48.5851 39.6713 48.0298 39.6713 47.3433V47.2524C39.6713 46.5675 39.116 46.0106 38.4295 46.0106H33.967C33.2821 46.0106 32.7252 45.4553 32.7252 44.7687V44.6779C32.7252 43.993 33.2804 43.4361 33.967 43.4361H41.773C42.4578 43.4361 43.0148 42.8808 43.0148 42.1942V42.1034C43.0148 41.4185 42.4595 40.8615 41.773 40.8615H38.2814C37.5965 40.8615 37.0396 40.3063 37.0396 39.6197V39.5289C37.0396 38.844 37.5949 38.287 38.2814 38.287H43.104C43.7888 38.287 44.3458 37.7317 44.3458 37.0452V36.9543C44.3458 36.2695 43.7905 35.7125 43.104 35.7125H41.8033C41.1184 35.7125 40.5614 35.1572 40.5614 34.4707V34.3798C40.5614 33.695 41.1167 33.138 41.8033 33.138H49.1246C49.8095 33.138 50.3664 32.5827 50.3664 31.8962V31.8053C50.3664 31.1205 49.8112 30.5635 49.1246 30.5635H47.373C46.6881 30.5635 46.1311 30.0082 46.1311 29.3217V29.2308C46.1311 28.546 46.6864 27.989 47.373 27.989H64.6053C65.2902 27.989 65.8472 27.4337 65.8472 26.7472V26.6563C65.8472 25.9714 65.2919 25.4145 64.6053 25.4145H61.8979C61.2131 25.4145 60.6561 24.8592 60.6561 24.1727V24.0818C60.6561 23.3969 61.2114 22.84 61.8979 22.84H69.8082C70.4931 22.84 71.05 23.3953 71.05 24.0818V24.1727C71.05 24.8575 70.4948 25.4145 69.8082 25.4145H69.6955C69.0106 25.4145 68.4537 25.9698 68.4537 26.6563V26.7472C68.4537 27.432 69.0089 27.989 69.6955 27.989H73.8904C74.5753 27.989 75.1322 28.5443 75.1322 29.2308V29.3217C75.1322 30.0065 74.577 30.5635 73.8904 30.5635H72.8017C72.1169 30.5635 71.5599 31.1188 71.5599 31.8053V31.8962C71.5599 32.581 72.1152 33.138 72.8017 33.138H85.3849C86.0697 33.138 86.6267 33.6933 86.6267 34.3798V34.4707C86.6267 35.1556 86.0714 35.7125 85.3849 35.7125H80.1988C79.514 35.7125 78.957 36.2678 78.957 36.9543V37.0452C78.957 37.7301 79.5123 38.287 80.1988 38.287H92.2973C92.9822 38.287 93.5392 38.8423 93.5392 39.5289V39.6197C93.5392 40.3046 92.9839 40.8615 92.2973 40.8615H86.7798C86.0949 40.8615 85.538 41.4168 85.538 42.1034V42.1942C85.5363 42.8808 86.0916 43.4361 86.7764 43.4361Z" fill="#EAF2F9"/>
<path d="M77.2997 28.0074H77.9021C78.6054 28.0074 79.1759 28.5779 79.1759 29.2812V29.3065C79.1759 30.0098 78.6054 30.5803 77.9021 30.5803H77.2997C76.5963 30.5803 76.0259 30.0098 76.0259 29.3065V29.2812C76.0259 28.5779 76.5963 28.0074 77.2997 28.0074Z" fill="#EAF2F9"/>
<path d="M35.5892 69.1829H41.4265C42.1298 69.1829 42.7003 69.7533 42.7003 70.4567V70.4819C42.7003 71.1853 42.1298 71.7557 41.4265 71.7557H35.5892C34.8859 71.7557 34.3154 71.1853 34.3154 70.4819V70.4567C34.3154 69.7533 34.8859 69.1829 35.5892 69.1829Z" fill="#EAF2F9"/>
<path d="M36.6307 33.1448H37.7968C38.5002 33.1448 39.0706 33.7152 39.0706 34.4186V34.4438C39.0706 35.1472 38.5002 35.7176 37.7968 35.7176H36.6307C35.9274 35.7176 35.3569 35.1472 35.3569 34.4438V34.4186C35.3586 33.7152 35.9274 33.1448 36.6307 33.1448Z" fill="#EAF2F9"/>
<path d="M38.4546 48.6406C39.7604 46.9983 41.0594 45.351 42.3769 43.7188C42.8447 43.1399 43.506 43.145 43.9822 43.7305C45.2022 45.2315 46.4087 46.7442 47.6084 48.262C48.0089 48.7668 47.9584 49.3473 47.5226 49.6839C47.0935 50.0171 46.5382 49.9211 46.1226 49.4146C45.4832 48.6356 44.8572 47.843 44.1539 46.9663C44.132 47.2137 44.1101 47.3483 44.1101 47.4829C44.1084 57.3233 44.1084 67.1653 44.1101 77.0057C44.1101 78.3939 44.874 79.1444 46.274 79.1511C47.1036 79.1545 47.9332 79.1427 48.761 79.1561C49.3668 79.1646 49.7336 79.5028 49.7589 80.0362C49.7841 80.5713 49.4291 81.0155 48.8637 81.0222C47.7043 81.034 46.5315 81.0946 45.3889 80.9465C43.5498 80.7076 42.276 79.1662 42.2272 77.3136C42.207 76.5581 42.2221 75.8025 42.2221 75.047C42.2221 65.9437 42.2221 56.8403 42.2221 47.7353C42.2221 47.5233 42.2221 47.3096 42.2221 46.9361C41.5457 47.7774 40.9736 48.4892 40.4031 49.201C39.6762 50.1062 39.2084 50.1315 38.4546 49.3086C38.4546 49.0832 38.4546 48.8627 38.4546 48.6406Z" fill="#1A3967"/>
<path d="M58.9148 84.8049C57.2725 83.4991 55.6251 82.2001 53.9912 80.8842C53.4057 80.413 53.4023 79.7669 53.9912 79.289C55.5073 78.0573 57.0352 76.8407 58.5664 75.6292C59.0427 75.2539 59.6114 75.3094 59.9463 75.7234C60.2777 76.134 60.2104 76.701 59.7426 77.0897C58.9501 77.7477 58.1407 78.382 57.2523 79.0972C57.4828 79.1224 57.6124 79.1493 57.7436 79.1493C67.6042 79.151 77.4647 79.1527 87.3253 79.1493C88.6445 79.1493 89.4135 78.3703 89.4219 77.0477C89.4269 76.2181 89.4168 75.3885 89.4252 74.559C89.432 73.8893 89.7837 73.4989 90.3558 73.4972C90.9262 73.4955 91.3048 73.8926 91.3031 74.5539C91.2981 75.6578 91.3637 76.7751 91.219 77.8638C90.9733 79.7046 89.4421 80.9734 87.5878 81.0323C87.3858 81.039 87.1822 81.0356 86.9803 81.0356C77.3217 81.0356 67.6647 81.0356 58.0061 81.0356C57.7941 81.0356 57.5821 81.0356 57.2068 81.0356C58.0499 81.7121 58.7616 82.2842 59.4717 82.8563C60.3753 83.5815 60.4006 84.0527 59.5777 84.8049C59.3556 84.8049 59.1352 84.8049 58.9148 84.8049Z" fill="#1A3967"/>
<path d="M65.7951 65.9218C65.7951 65.2655 65.7951 64.6985 65.7951 64.0641C65.5831 64.054 65.3913 64.0355 65.1978 64.0355C62.7831 64.0338 60.3685 64.0338 57.9555 64.0338C56.5454 64.0338 56.2139 64.4309 56.4461 65.9218C56.9812 65.9218 57.5281 65.9167 58.0766 65.9235C59.3908 65.9386 60.1413 66.6773 60.1497 67.978C60.1564 69.1391 60.1581 70.3001 60.1497 71.4612C60.1396 72.703 59.4026 73.4703 58.1591 73.4838C56.3351 73.5023 54.5093 73.5057 52.6853 73.4821C51.4805 73.4653 50.7368 72.6811 50.7284 71.4797C50.7199 70.3001 50.7216 69.1206 50.7284 67.941C50.7351 66.7177 51.4973 65.9504 52.7324 65.9251C53.2995 65.9134 53.8666 65.9235 54.4942 65.9235C54.4942 65.6189 54.4925 65.3665 54.4942 65.1141C54.511 63.3675 55.7024 62.161 57.4541 62.1526C60.0336 62.1408 62.6149 62.1492 65.1944 62.1492C65.3745 62.1492 65.5562 62.1492 65.8153 62.1492C65.8153 61.5603 65.8254 61.0151 65.8052 60.4699C65.8019 60.374 65.6891 60.2208 65.5999 60.199C64.8596 60.0122 64.4927 59.467 64.3329 58.7973C64.0704 57.7035 63.0439 57.7271 62.2968 57.3754C62.1033 57.2846 61.7197 57.5471 61.4437 57.6867C60.5502 58.1427 59.7762 58.0031 59.0964 57.2728C58.9954 57.1651 58.8827 57.0692 58.7783 56.9648C57.5752 55.7735 57.5012 55.4471 58.1843 53.9124C58.3408 53.5624 58.398 53.2612 58.1641 52.9382C58.1322 52.8944 58.1103 52.8389 58.1002 52.7867C57.9252 51.9235 57.3834 51.4692 56.5454 51.2302C55.8387 51.0283 55.4836 50.4697 55.4735 49.7226C55.4668 49.1891 55.4634 48.654 55.4786 48.1206C55.4971 47.424 55.8252 46.8267 56.4899 46.6937C57.6577 46.4598 57.9504 45.5545 58.3004 44.661C58.3526 44.5298 58.3122 44.3413 58.2634 44.1966C58.1692 43.919 58.0396 43.6514 57.9235 43.3822C57.6206 42.6839 57.7065 42.0512 58.2432 41.4993C58.6151 41.1173 58.9887 40.7336 59.3807 40.3719C59.8889 39.9024 60.5401 39.7038 61.1055 40.0925C62.1 40.7757 62.9413 40.2945 63.8146 39.9142C63.9677 39.8485 64.0939 39.6365 64.1579 39.4632C64.7569 37.8361 64.9773 37.6123 67.0622 37.6089C68.1812 37.6072 68.9468 38.0228 69.2278 39.1536C69.3591 39.6803 69.7208 39.9041 70.1954 40.1464C70.961 40.5351 71.6172 40.525 72.3492 40.1144C73.0021 39.7476 73.6381 39.8957 74.1766 40.4022C74.5788 40.7808 74.9708 41.1711 75.3444 41.5767C75.8155 42.0882 75.9838 42.7445 75.6052 43.3082C74.9304 44.3077 75.4252 45.1473 75.7937 46.0274C75.8425 46.1418 75.9889 46.2377 76.1117 46.2932C76.4112 46.4329 76.7259 46.5389 77.0321 46.6685C77.6699 46.9377 78.0266 47.4156 78.0451 48.1139C78.0602 48.6658 78.0602 49.2194 78.0434 49.7714C78.0232 50.4663 77.7001 51.0536 77.0304 51.1966C75.8778 51.4423 75.5598 52.329 75.2215 53.236C75.1727 53.3689 75.2115 53.5557 75.2619 53.7004C75.3562 53.9781 75.4857 54.2456 75.6018 54.5148C75.8929 55.1896 75.8239 55.8139 75.3141 56.3574C74.9355 56.7596 74.5451 57.1516 74.1413 57.5269C73.6112 58.0165 72.9987 58.0754 72.3442 57.7995C72.1574 57.7204 71.9622 57.6564 71.7889 57.5555C71.422 57.3401 71.0687 57.3064 70.7119 57.5672C70.6968 57.5773 70.68 57.5874 70.6615 57.5908C69.7494 57.7624 69.3153 58.3615 69.0107 59.2045C68.8711 59.5915 68.3646 59.8422 68.0365 60.1653C67.912 60.2881 67.737 60.4362 67.7252 60.5843C67.6865 61.0773 67.71 61.5754 67.71 62.1526C67.9422 62.1526 68.1374 62.1526 68.3326 62.1526C70.7843 62.1526 73.2343 62.1526 75.686 62.1526C77.9357 62.1526 79.0143 63.216 79.0328 65.4489C79.0345 65.5768 79.0328 65.7047 79.0328 65.9251C79.5814 65.9251 80.1047 65.9235 80.6297 65.9251C82.0718 65.9319 82.7987 66.6622 82.8004 68.1093C82.8021 69.2333 82.8071 70.3573 82.7987 71.4814C82.7903 72.6795 82.0448 73.4653 80.84 73.4821C78.9975 73.5073 77.1533 73.5073 75.3107 73.4821C74.1312 73.4653 73.3908 72.6895 73.379 71.5167C73.3672 70.3186 73.3689 69.1206 73.379 67.9225C73.3891 66.7194 74.1396 65.9588 75.341 65.9268C75.9249 65.9117 76.5088 65.9235 77.1482 65.9235C77.1482 65.6408 77.1516 65.4237 77.1482 65.2083C77.1364 64.3838 76.7965 64.0405 75.9586 64.0372C73.655 64.0321 71.3514 64.0355 69.0478 64.0355C68.6288 64.0355 68.2081 64.0355 67.7504 64.0355C67.7504 64.6732 67.7504 65.2538 67.7504 65.9235C68.2737 65.9235 68.8004 65.9201 69.3271 65.9235C70.7271 65.9319 71.4809 66.679 71.4893 68.0723C71.4961 69.1778 71.4978 70.2833 71.4893 71.3888C71.4776 72.7165 70.7204 73.477 69.3877 73.4855C67.6377 73.4956 65.886 73.4956 64.136 73.4855C62.8033 73.477 62.0478 72.7148 62.0377 71.3871C62.0293 70.2631 62.0293 69.1391 62.0377 68.015C62.0478 66.6908 62.8117 65.9386 64.1444 65.9251C64.6778 65.9167 65.2096 65.9218 65.7951 65.9218ZM72.8843 55.9653C73.2713 55.9754 73.8889 55.2031 73.7172 54.9254C73.0542 53.8586 73.0542 52.8305 73.7946 51.8091C73.8047 51.7939 73.8148 51.7771 73.8182 51.7586C73.978 50.5656 74.71 49.9228 75.8357 49.6704C76.2901 49.5677 76.179 49.2144 76.184 48.9216C76.1891 48.6423 76.2665 48.3074 75.8509 48.2199C74.6865 47.9742 73.9764 47.2911 73.803 46.0913C73.8014 46.0745 73.7896 46.0577 73.7778 46.0425C73.0492 45.0363 73.0475 44.0166 73.7189 42.9817C73.941 42.6418 73.6365 42.4735 73.4497 42.3053C73.2562 42.1303 73.1148 41.7449 72.7379 41.9889C71.6812 42.6721 70.648 42.6502 69.6283 41.9098C69.6148 41.8997 69.5946 41.8947 69.5761 41.893C68.3949 41.7197 67.7369 41.0062 67.4913 39.8687C67.4055 39.4683 67.0874 39.4952 66.7963 39.5036C66.4985 39.512 66.135 39.4178 66.0408 39.857C65.7901 41.0214 65.1035 41.7264 63.9088 41.9048C63.8903 41.9082 63.8718 41.9132 63.8567 41.9233C62.8538 42.667 61.8341 42.6586 60.8009 41.9889C60.4509 41.7618 60.2927 42.0714 60.1228 42.2548C59.9444 42.4466 59.5641 42.5913 59.8031 42.9649C60.4778 44.0216 60.4778 45.0565 59.729 46.0762C59.7189 46.0913 59.7105 46.1098 59.7089 46.1267C59.5473 47.318 58.8204 47.9658 57.6896 48.2149C57.2723 48.3074 57.3312 48.6238 57.343 48.9065C57.3548 49.1959 57.2218 49.556 57.6829 49.6603C58.8052 49.9161 59.5473 50.5504 59.7072 51.7468C59.7122 51.7822 59.7307 51.8175 59.7526 51.8461C60.4795 52.854 60.4795 53.8737 59.8064 54.9069C59.5843 55.2485 59.8939 55.4084 60.074 55.585C60.2675 55.7752 60.4375 56.1302 60.7959 55.8947C61.856 55.198 62.8858 55.2552 63.9072 55.9704C63.9223 55.9805 63.9391 55.9906 63.9576 55.9939C65.1507 56.1572 65.78 56.8925 66.0492 58.0182C66.0812 58.1495 66.2225 58.3177 66.3471 58.3531C67.0033 58.5432 67.3567 58.3547 67.6091 57.7254C67.6848 57.537 67.774 57.3535 67.8312 57.1617C67.9843 56.6552 68.3141 56.386 68.824 56.2362C69.3675 56.0781 69.9076 55.8644 70.399 55.585C70.9206 55.2872 71.3917 55.2737 71.91 55.5362C72.2381 55.7045 72.5831 55.8358 72.8843 55.9653ZM69.6031 71.5655C69.6031 70.3944 69.593 69.2905 69.6081 68.1867C69.6131 67.8367 69.4281 67.8081 69.1555 67.8081C67.5721 67.8131 65.987 67.8232 64.4035 67.8013C63.9947 67.7963 63.9105 67.9578 63.9189 68.3213C63.9391 69.1492 63.9257 69.9787 63.9257 70.8083C63.9257 71.0557 63.9257 71.3047 63.9257 71.5655C65.8591 71.5655 67.6932 71.5655 69.6031 71.5655ZM52.6298 67.8384C52.6298 69.1004 52.6298 70.3136 52.6298 71.5605C54.5009 71.5605 56.3519 71.5605 58.2298 71.5605C58.2298 70.3119 58.2298 69.0886 58.2298 67.8384C56.3586 67.8384 54.5245 67.8384 52.6298 67.8384ZM75.3107 67.8114C75.3107 69.1071 75.3107 70.3304 75.3107 71.547C77.2004 71.547 79.048 71.547 80.8922 71.547C80.8922 70.2884 80.8922 69.0785 80.8922 67.8451C80.7593 67.8316 80.6516 67.8131 80.5456 67.8131C78.8158 67.8098 77.086 67.8114 75.3107 67.8114Z" fill="#1A3967"/>
<path d="M76.339 31.95C75.4068 31.2046 74.6042 30.5719 73.8116 29.9291C73.3506 29.5539 73.2496 29.039 73.5323 28.6116C73.8352 28.1505 74.414 28.0227 74.8835 28.3895C76.4804 29.638 78.0638 30.9017 79.6337 32.1839C80.1116 32.5743 80.1015 33.2289 79.6135 33.6294C78.0587 34.9015 76.4888 36.1534 74.9121 37.3952C74.4679 37.7435 73.8957 37.656 73.5794 37.2539C73.2614 36.85 73.3169 36.2947 73.7578 35.9279C74.5621 35.2582 75.3849 34.6104 76.2936 33.8801C76.0294 33.8599 75.8763 33.838 75.7248 33.838C65.9013 33.8363 56.0795 33.8363 46.2559 33.838C44.866 33.838 44.1155 34.6003 44.1105 36.0003C44.1071 36.8113 44.1155 37.6224 44.1071 38.4334C44.1004 39.0998 43.7437 39.4918 43.1716 39.4918C42.6028 39.4918 42.236 39.093 42.2276 38.4301C42.2175 37.508 42.2057 36.5858 42.2309 35.6654C42.2865 33.6092 43.8884 32.0174 45.9463 31.9568C46.4797 31.9416 47.0148 31.9517 47.5499 31.9517C56.8754 31.9517 66.2008 31.9517 75.5263 31.9517C75.7383 31.95 75.952 31.95 76.339 31.95Z" fill="#1A3967"/>
<path d="M91.4226 65.92C92.0654 65.1174 92.6762 64.2878 93.3661 63.5273C93.5764 63.295 94.0106 63.1352 94.3185 63.1655C94.5726 63.1907 94.9108 63.5121 94.9933 63.7712C95.0774 64.0321 94.9832 64.451 94.8082 64.6782C93.6051 66.2397 92.3683 67.7744 91.1248 69.3039C90.6906 69.8373 90.0378 69.8457 89.6053 69.314C88.3483 67.7727 87.1082 66.2162 85.8748 64.6547C85.5214 64.2071 85.5921 63.6467 85.9875 63.3186C86.3981 62.9787 86.9652 63.041 87.3539 63.5071C87.9209 64.1852 88.4628 64.8852 89.0181 65.5734C89.1156 65.6946 89.2267 65.8056 89.4219 66.0227C89.4219 65.7131 89.4219 65.5381 89.4219 65.3614C89.4219 55.6136 89.4219 45.8658 89.4219 36.1163C89.4219 34.5396 88.7084 33.8362 87.1166 33.8346C86.3056 33.8346 85.4945 33.8463 84.6851 33.8261C84.1332 33.811 83.7815 33.4391 83.7697 32.9209C83.7597 32.406 84.1012 31.9735 84.6397 31.9685C85.8159 31.955 87.0072 31.8961 88.1683 32.0475C89.9587 32.2798 91.214 33.7891 91.3015 35.593C91.3115 35.8134 91.3082 36.0355 91.3082 36.2559C91.3082 45.9112 91.3082 55.5681 91.3082 65.2234C91.3082 65.4422 91.3082 65.6609 91.3082 65.878C91.3469 65.8931 91.3856 65.9066 91.4226 65.92Z" fill="#1A3967"/>
<path d="M72.8842 55.9654C72.583 55.8358 72.2381 55.7046 71.9116 55.5397C71.3934 55.2772 70.9222 55.2906 70.4006 55.5885C69.9109 55.8678 69.3691 56.0815 68.8256 56.2397C68.314 56.3894 67.9842 56.6587 67.8328 57.1652C67.7739 57.3587 67.6847 57.5421 67.6107 57.7289C67.3583 58.3582 67.0049 58.5466 66.3487 58.3565C66.2241 58.3212 66.0828 58.1529 66.0508 58.0216C65.7833 56.8959 65.1523 56.1606 63.9592 55.9974C63.9424 55.9957 63.9239 55.9839 63.9088 55.9738C62.889 55.257 61.8592 55.1998 60.7975 55.8981C60.4391 56.1337 60.2691 55.7769 60.0756 55.5885C59.8939 55.4118 59.5843 55.2519 59.8081 54.9104C60.4811 53.8755 60.4794 52.8575 59.7542 51.8496C59.7323 51.8209 59.7138 51.7839 59.7088 51.7503C59.5489 50.5539 58.8069 49.9212 57.6845 49.6637C57.2234 49.5594 57.3564 49.1976 57.3446 48.9099C57.3345 48.6272 57.2739 48.3109 57.6912 48.2183C58.822 47.9693 59.5489 47.3214 59.7105 46.1301C59.7121 46.1116 59.7206 46.0931 59.7306 46.0796C60.4794 45.0599 60.4794 44.0251 59.8047 42.9683C59.5657 42.5948 59.946 42.4484 60.1244 42.2582C60.2943 42.0765 60.4525 41.7652 60.8025 41.9924C61.8357 42.6621 62.8554 42.6705 63.8583 41.9267C63.8717 41.9166 63.8919 41.9099 63.9104 41.9082C65.1051 41.7299 65.7934 41.0248 66.0424 39.8604C66.1366 39.4212 66.5001 39.5155 66.7979 39.507C67.089 39.4986 67.4054 39.4717 67.4929 39.8722C67.7386 41.0097 68.3965 41.7231 69.5777 41.8965C69.5962 41.8998 69.6164 41.9032 69.6299 41.9133C70.6479 42.6537 71.6828 42.6755 72.7395 41.9924C73.1181 41.7484 73.2578 42.132 73.4513 42.3087C73.6381 42.477 73.9426 42.6436 73.7205 42.9852C73.0474 44.02 73.0508 45.0397 73.7794 46.046C73.7895 46.0611 73.8013 46.0779 73.8046 46.0948C73.9796 47.2928 74.6897 47.976 75.8525 48.2234C76.2681 48.3109 76.1907 48.6457 76.1856 48.925C76.1806 49.2178 76.2917 49.5729 75.8373 49.6738C74.7116 49.9279 73.978 50.5707 73.8198 51.7621C73.8181 51.7789 73.808 51.7974 73.7962 51.8125C73.0558 52.8339 73.0558 53.862 73.7188 54.9289C73.8905 55.2031 73.2729 55.9755 72.8842 55.9654ZM66.7744 43.288C63.6311 43.2931 61.1155 45.8037 61.1138 48.9351C61.1121 52.0683 63.6446 54.6142 66.7559 54.6075C69.9059 54.6007 72.4265 52.0599 72.4181 48.8964C72.4097 45.802 69.8722 43.2813 66.7744 43.288Z" fill="white"/>
<path d="M69.6029 71.5656C67.6914 71.5656 65.8573 71.5656 63.9272 71.5656C63.9272 71.3047 63.9272 71.0557 63.9272 70.8083C63.9272 69.9788 63.9407 69.1509 63.9205 68.3213C63.9121 67.9579 63.9945 67.7963 64.4051 67.8014C65.9885 67.8233 67.5736 67.8132 69.157 67.8081C69.4279 67.8064 69.6147 67.835 69.6097 68.1867C69.5945 69.2889 69.6029 70.3927 69.6029 71.5656Z" fill="white"/>
<path d="M52.6299 67.8384C54.5246 67.8384 56.3587 67.8384 58.2299 67.8384C58.2299 69.0886 58.2299 70.3119 58.2299 71.5605C56.3537 71.5605 54.501 71.5605 52.6299 71.5605C52.6299 70.3136 52.6299 69.1004 52.6299 67.8384Z" fill="white"/>
<path d="M75.3108 67.8114C77.086 67.8114 78.8158 67.8114 80.5439 67.8131C80.6499 67.8131 80.7576 67.8333 80.8906 67.8451C80.8906 69.0801 80.8906 70.2883 80.8906 71.547C79.0463 71.547 77.2004 71.547 75.3091 71.547C75.3108 70.3287 75.3108 69.1071 75.3108 67.8114Z" fill="white"/>
<path d="M66.7745 43.288C69.8724 43.2829 72.4082 45.8036 72.4166 48.8964C72.425 52.0598 69.906 54.6007 66.7544 54.6074C63.6431 54.6141 61.1106 52.0665 61.1123 48.9351C61.1157 45.8019 63.6313 43.293 66.7745 43.288ZM66.7931 45.1776C64.7032 45.1642 63.0087 46.8267 62.9986 48.9014C62.9885 51.0115 64.6695 52.7177 66.7645 52.7228C68.8291 52.7278 70.5253 51.0317 70.5303 48.9586C70.537 46.867 68.8796 45.1911 66.7931 45.1776Z" fill="#1A3967"/>
<path d="M66.7928 45.1776C68.8794 45.191 70.5368 46.867 70.5318 48.9569C70.5267 51.0316 68.8306 52.7261 66.7659 52.7211C64.671 52.716 62.9899 51.0098 63 48.8997C63.0085 46.8266 64.7029 45.1641 66.7928 45.1776Z" fill="white"/>
</g>
<defs>
<clipPath id="clip0_21_3208">
<rect width="80" height="80" fill="white" transform="translate(25 15)"/>
</clipPath>
</defs>
</svg>
