<svg width="91" height="24" viewBox="0 0 91 24" fill="none" xmlns="http://www.w3.org/2000/svg">
<g clip-path="url(#clip0_6_10007)">
<path fill-rule="evenodd" clip-rule="evenodd" d="M29.956 12.5373L30.2628 10.8476C30.2628 10.8476 27.8995 10.1054 25.9761 11.4819V18.2412H28.0186V12.7496C28.8326 12.1153 29.956 12.5373 29.956 12.5373Z" fill="#03435F"/>
<mask id="mask0_6_10007" style="mask-type:alpha" maskUnits="userSpaceOnUse" x="25" y="10" width="6" height="9">
<path d="M25.9761 11.4816C26.9015 10.8195 27.9289 10.6476 28.7458 10.6477C29.6267 10.6477 30.263 10.8475 30.263 10.8475L29.9559 12.5372C29.9559 12.5372 28.8326 12.1152 28.0186 12.7493V18.241H25.9761V11.4816Z" fill="#03435F"/>
</mask>
<g mask="url(#mask0_6_10007)">
<path fill-rule="evenodd" clip-rule="evenodd" d="M-98.3613 39.1907L189.283 39.1907V-354.87H-98.3613L-98.3613 39.1907Z" fill="#03435F"/>
</g>
<mask id="mask1_6_10007" style="mask-type:alpha" maskUnits="userSpaceOnUse" x="25" y="10" width="6" height="9">
<path d="M25.9761 11.4816C26.9015 10.8195 27.9287 10.6477 28.7458 10.6477C29.6267 10.6477 30.263 10.8475 30.263 10.8475L29.9559 12.5372C29.9559 12.5372 28.8326 12.1152 28.0186 12.7493V18.241H25.9761V11.4816Z" fill="#03435F"/>
</mask>
<g mask="url(#mask1_6_10007)">
<path fill-rule="evenodd" clip-rule="evenodd" d="M22.5518 21.5525H33.6873V7.33623H22.5518V21.5525Z" fill="#03435F"/>
</g>
<path fill-rule="evenodd" clip-rule="evenodd" d="M12.3467 8.92056L14.3883 8.5486V10.7469H16.4086V12.505H14.3883V15.1267C14.3883 15.5733 14.463 15.9279 14.6157 16.1901C14.7667 16.4563 15.0694 16.5882 15.5241 16.5882C15.7464 16.5882 15.9697 16.5676 16.2052 16.5239C16.4341 16.4794 16.6474 16.4222 16.8395 16.3474L17.1284 17.9942C16.8812 18.0967 16.6081 18.1857 16.307 18.2611C16.0049 18.3358 15.634 18.3748 15.1957 18.3748C14.6386 18.3748 14.1782 18.2962 13.8121 18.1404C13.4479 17.9846 13.155 17.766 12.9367 17.487C12.7184 17.2105 12.5649 16.8712 12.4787 16.4738C12.391 16.0772 12.3467 15.6392 12.3467 15.1561V8.92056Z" fill="#03435F"/>
<mask id="mask2_6_10007" style="mask-type:alpha" maskUnits="userSpaceOnUse" x="12" y="8" width="6" height="11">
<path d="M12.3467 8.92056L14.3883 8.5486V10.7469H16.4086V12.505H14.3883V15.1267C14.3883 15.5735 14.463 15.9279 14.6156 16.1901C14.7665 16.4564 15.0693 16.5882 15.5239 16.5882C15.7463 16.5882 15.9694 16.5676 16.2051 16.5239C16.4339 16.4794 16.6474 16.4222 16.8395 16.3476L17.1282 17.9942C16.8812 18.0968 16.608 18.1858 16.3068 18.2613C16.0047 18.3359 15.6338 18.3748 15.1956 18.3748C14.6384 18.3748 14.1781 18.2962 13.8121 18.1404C13.4478 17.9846 13.1548 17.766 12.9366 17.4872C12.7182 17.2105 12.5649 16.8712 12.4787 16.4738C12.3908 16.0772 12.3467 15.6394 12.3467 15.1561V8.92056Z" fill="#03435F"/>
</mask>
<g mask="url(#mask2_6_10007)">
<path fill-rule="evenodd" clip-rule="evenodd" d="M-98.3613 39.1907L189.283 39.1907V-354.87H-98.3613L-98.3613 39.1907Z" fill="#03435F"/>
</g>
<mask id="mask3_6_10007" style="mask-type:alpha" maskUnits="userSpaceOnUse" x="12" y="8" width="6" height="11">
<path d="M12.3467 8.92056L14.3883 8.5486V10.7469H16.4086V12.505H14.3883V15.1267C14.3883 15.5735 14.463 15.9279 14.6156 16.1901C14.7665 16.4564 15.0693 16.5882 15.5239 16.5882C15.7463 16.5882 15.9694 16.5676 16.2051 16.5239C16.4339 16.4794 16.6474 16.4222 16.8395 16.3476L17.1282 17.9942C16.8812 18.0968 16.608 18.1858 16.3068 18.2613C16.0047 18.3359 15.6338 18.3748 15.1956 18.3748C14.6384 18.3748 14.1781 18.2962 13.8121 18.1404C13.4478 17.9846 13.1548 17.766 12.9366 17.4872C12.7182 17.2105 12.5649 16.8712 12.4787 16.4738C12.3908 16.0772 12.3467 15.6394 12.3467 15.1561V8.92056Z" fill="#03435F"/>
</mask>
<g mask="url(#mask3_6_10007)">
<path fill-rule="evenodd" clip-rule="evenodd" d="M8.92236 21.6863H20.5527V5.23712H8.92236L8.92236 21.6863Z" fill="#03435F"/>
</g>
<path fill-rule="evenodd" clip-rule="evenodd" d="M33.2867 16.7275C33.6602 16.7275 33.9244 16.6877 34.0812 16.613C34.237 16.5376 34.3125 16.3897 34.3125 16.1736C34.3125 16.0027 34.214 15.8541 34.0121 15.7277C33.8103 15.599 33.5066 15.456 33.0948 15.293C32.7755 15.1698 32.485 15.0428 32.2232 14.9116C31.9648 14.7781 31.7432 14.6223 31.5603 14.4371C31.3779 14.2528 31.2368 14.0317 31.1351 13.7743C31.0333 13.5215 30.985 13.2156 30.985 12.8547C30.985 12.1561 31.2368 11.6022 31.7383 11.196C32.2404 10.7916 32.9282 10.585 33.8062 10.585C34.2452 10.585 34.6654 10.6254 35.0675 10.7073C35.4688 10.7868 35.7897 10.8775 36.0251 10.9688L35.6698 12.6138C35.4318 12.5288 35.1734 12.4542 34.8952 12.389C34.6169 12.3223 34.3035 12.2873 33.9572 12.2873C33.3179 12.2873 32.9978 12.4732 32.9978 12.8412C32.9978 12.9262 33.0118 13.0018 33.0397 13.0677C33.0676 13.1345 33.1219 13.1981 33.2023 13.2592C33.2867 13.3197 33.3968 13.3879 33.5395 13.4579C33.6814 13.5318 33.8619 13.6081 34.0812 13.6947C34.5267 13.8664 34.8968 14.0333 35.189 14.2019C35.4818 14.3703 35.7116 14.5476 35.8816 14.7446C36.0505 14.937 36.1704 15.1501 36.2377 15.3867C36.305 15.6229 36.3402 15.8954 36.3402 16.2062C36.3402 16.9429 36.0727 17.4999 35.5401 17.8767C35.0051 18.2518 34.2484 18.4409 33.2711 18.4409C32.6327 18.4409 32.1009 18.3861 31.6767 18.2709C31.2508 18.1589 30.957 18.062 30.793 17.9872L31.1351 16.2721C31.4806 16.4136 31.8401 16.5232 32.2028 16.606C32.5704 16.687 32.9282 16.7275 33.2867 16.7275Z" fill="#03435F"/>
<mask id="mask4_6_10007" style="mask-type:alpha" maskUnits="userSpaceOnUse" x="30" y="10" width="7" height="9">
<path d="M31.7383 11.1962C32.2406 10.7916 32.9282 10.585 33.8062 10.585C34.2454 10.585 34.6655 10.6254 35.0676 10.7073C35.4688 10.7868 35.7897 10.8773 36.0252 10.9688L35.6699 12.6138C35.4318 12.5288 35.1735 12.4542 34.8952 12.389C34.6171 12.3222 34.3035 12.2874 33.9573 12.2874C33.3179 12.2874 32.998 12.4731 32.998 12.8412C32.998 12.9262 33.0118 13.0018 33.0397 13.0677C33.0677 13.1345 33.122 13.1981 33.2024 13.2592C33.2867 13.3197 33.3969 13.3879 33.5396 13.458C33.6815 13.5317 33.8619 13.6082 34.0812 13.6947C34.5268 13.8664 34.8969 14.0333 35.189 14.2019C35.482 14.3703 35.7118 14.5475 35.8817 14.7446C36.0507 14.937 36.1704 15.1499 36.2378 15.3867C36.3051 15.6229 36.3402 15.8954 36.3402 16.2062C36.3402 16.9429 36.0727 17.5001 35.5403 17.8767C35.0052 18.2518 34.2486 18.4409 33.2712 18.4409C32.6328 18.4409 32.1011 18.3861 31.6768 18.2709C31.2508 18.1589 30.9572 18.062 30.793 17.9872L31.1352 16.2721C31.4808 16.4137 31.8401 16.5232 32.2028 16.606C32.5704 16.6869 32.9282 16.7275 33.2867 16.7275C33.6602 16.7275 33.9245 16.6878 34.0812 16.613C34.2371 16.5376 34.3126 16.3897 34.3126 16.1736C34.3126 16.0027 34.2142 15.8541 34.0122 15.7277C33.8103 15.599 33.5066 15.456 33.0948 15.293C32.7755 15.1698 32.4852 15.0428 32.2232 14.9116C31.9649 14.7781 31.7432 14.6223 31.5604 14.4371C31.3781 14.2527 31.237 14.0317 31.1352 13.7743C31.0334 13.5214 30.985 13.2156 30.985 12.8547C30.985 12.1562 31.237 11.6023 31.7383 11.1962Z" fill="#03435F"/>
</mask>
<g mask="url(#mask4_6_10007)">
<path fill-rule="evenodd" clip-rule="evenodd" d="M-98.3613 39.1907L189.283 39.1907V-354.87H-98.3613L-98.3613 39.1907Z" fill="#03435F"/>
</g>
<mask id="mask5_6_10007" style="mask-type:alpha" maskUnits="userSpaceOnUse" x="30" y="10" width="7" height="9">
<path d="M31.7383 11.1962C32.2406 10.7916 32.9282 10.585 33.8062 10.585C34.2454 10.585 34.6655 10.6254 35.0676 10.7073C35.4688 10.7868 35.7897 10.8773 36.0252 10.9688L35.6699 12.6138C35.4318 12.5288 35.1735 12.4542 34.8952 12.389C34.6171 12.3222 34.3035 12.2874 33.9573 12.2874C33.3179 12.2874 32.998 12.4731 32.998 12.8412C32.998 12.9262 33.0118 13.0018 33.0397 13.0677C33.0677 13.1345 33.122 13.1981 33.2024 13.2592C33.2867 13.3197 33.3969 13.3879 33.5396 13.458C33.6815 13.5317 33.8619 13.6082 34.0812 13.6947C34.5268 13.8664 34.8969 14.0333 35.189 14.2019C35.482 14.3703 35.7118 14.5475 35.8817 14.7446C36.0507 14.937 36.1704 15.1499 36.2378 15.3867C36.3051 15.6229 36.3402 15.8954 36.3402 16.2062C36.3402 16.9429 36.0727 17.5001 35.5403 17.8767C35.0052 18.2518 34.2486 18.4409 33.2712 18.4409C32.6328 18.4409 32.1011 18.3861 31.6768 18.2709C31.2508 18.1589 30.9572 18.062 30.793 17.9872L31.1352 16.2721C31.4808 16.4137 31.8401 16.5232 32.2028 16.606C32.5704 16.6869 32.9282 16.7275 33.2867 16.7275C33.6602 16.7275 33.9245 16.6878 34.0812 16.613C34.2371 16.5376 34.3126 16.3897 34.3126 16.1736C34.3126 16.0027 34.2142 15.8541 34.0122 15.7277C33.8103 15.599 33.5066 15.456 33.0948 15.293C32.7755 15.1698 32.4852 15.0428 32.2232 14.9116C31.9649 14.7781 31.7432 14.6223 31.5604 14.4371C31.3781 14.2527 31.237 14.0317 31.1352 13.7743C31.0334 13.5214 30.985 13.2156 30.985 12.8547C30.985 12.1562 31.237 11.6023 31.7383 11.1962Z" fill="#03435F"/>
</mask>
<g mask="url(#mask5_6_10007)">
<path fill-rule="evenodd" clip-rule="evenodd" d="M27.3687 21.7524H39.7647V7.27347H27.3687V21.7524Z" fill="#03435F"/>
</g>
<path fill-rule="evenodd" clip-rule="evenodd" d="M42.6331 13.9605C42.4501 14.679 42.2572 15.3943 42.0513 16.1016C41.8461 16.8113 41.6277 17.525 41.4022 18.2434H39.8127C39.6477 17.846 39.4681 17.374 39.276 16.8264C39.0822 16.2764 38.8846 15.6796 38.6769 15.0303C38.4717 14.3833 38.2618 13.6983 38.0466 12.9735C37.8308 12.2519 37.6216 11.5223 37.4214 10.7839H39.573C39.6444 11.1232 39.7256 11.4961 39.8134 11.8973C39.9005 12.2994 39.9924 12.7136 40.0884 13.1396C40.1844 13.564 40.287 13.9907 40.3919 14.4214C40.4978 14.8522 40.6062 15.2647 40.716 15.6614C40.8351 15.2457 40.9517 14.8213 41.0657 14.3865C41.1781 13.9511 41.289 13.5234 41.3947 13.1031C41.499 12.6834 41.6016 12.2757 41.6951 11.8831C41.7903 11.4912 41.8749 11.1232 41.9495 10.7839H43.4274C43.5029 11.1232 43.5824 11.4912 43.6751 11.8831C43.7654 12.2757 43.8615 12.6834 43.9633 13.1031C44.0617 13.5234 44.1692 13.9511 44.2767 14.3865C44.3874 14.8213 44.5008 15.2457 44.6181 15.6614C44.7288 15.2647 44.8389 14.8522 44.9496 14.4214C45.0604 13.9907 45.1646 13.564 45.2598 13.1396C45.355 12.7136 45.4469 12.2994 45.5356 11.8973C45.6233 11.4961 45.703 11.1232 45.7759 10.7839H47.8997C47.6979 11.5223 47.4903 12.2519 47.2745 12.9735C47.0569 13.6983 46.8493 14.3833 46.6418 15.0303C46.4373 15.6796 46.2355 16.2764 46.0393 16.8264C45.8417 17.374 45.6594 17.846 45.497 18.2434H43.9075C43.6776 17.525 43.4545 16.8113 43.2346 16.1016C43.0154 15.3943 42.8168 14.679 42.6331 13.9605Z" fill="#03435F"/>
<mask id="mask6_6_10007" style="mask-type:alpha" maskUnits="userSpaceOnUse" x="37" y="10" width="11" height="9">
<path d="M45.7759 10.7839H47.8997C47.6979 11.5223 47.4903 12.2519 47.2743 12.9733C47.0569 13.6983 46.8493 14.3834 46.6416 15.0303C46.4373 15.6796 46.2355 16.2764 46.0392 16.8264C45.8415 17.374 45.6594 17.8459 45.4969 18.2434H43.9074C43.6776 17.525 43.4545 16.8112 43.2346 16.1014C43.0154 15.3943 42.8168 14.679 42.6331 13.9605C42.4499 14.679 42.2571 15.3943 42.0513 16.1014C41.8461 16.8112 41.6277 17.525 41.4021 18.2434H39.8126C39.6476 17.8459 39.4679 17.374 39.2759 16.8264C39.0822 16.2764 38.8844 15.6796 38.6769 15.0303C38.4717 14.3834 38.2616 13.6983 38.0466 12.9733C37.8308 12.2519 37.6216 11.5223 37.4214 10.7839H39.5729C39.6444 11.1232 39.7256 11.496 39.8134 11.8973C39.9005 12.2994 39.9922 12.7136 40.0884 13.1394C40.1843 13.5639 40.287 13.9907 40.3919 14.4214C40.4978 14.8522 40.6062 15.2647 40.716 15.6614C40.835 15.2457 40.9515 14.8211 41.0656 14.3865C41.178 13.9511 41.289 13.5234 41.3947 13.1031C41.4989 12.6833 41.6015 12.2756 41.6951 11.8831C41.7903 11.4912 41.8749 11.1232 41.9494 10.7839H43.4274C43.5028 11.1232 43.5824 11.4912 43.6751 11.8831C43.7654 12.2756 43.8615 12.6833 43.9632 13.1031C44.0617 13.5234 44.1691 13.9511 44.2767 14.3865C44.3874 14.8211 44.5008 15.2457 44.618 15.6614C44.7288 15.2647 44.8387 14.8522 44.9496 14.4214C45.0604 13.9907 45.1646 13.5639 45.2598 13.1394C45.355 12.7136 45.4469 12.2994 45.5355 11.8973C45.6234 11.496 45.703 11.1232 45.7759 10.7839Z" fill="#03435F"/>
</mask>
<g mask="url(#mask6_6_10007)">
<path fill-rule="evenodd" clip-rule="evenodd" d="M-98.3613 39.1907L189.283 39.1907V-354.87H-98.3613L-98.3613 39.1907Z" fill="#03435F"/>
</g>
<mask id="mask7_6_10007" style="mask-type:alpha" maskUnits="userSpaceOnUse" x="37" y="10" width="11" height="9">
<path d="M45.7759 10.7839H47.8997C47.6979 11.5223 47.4903 12.2519 47.2743 12.9733C47.0569 13.6983 46.8493 14.3834 46.6416 15.0303C46.4373 15.6796 46.2355 16.2764 46.0392 16.8264C45.8415 17.374 45.6594 17.8459 45.4969 18.2434H43.9074C43.6776 17.525 43.4545 16.8112 43.2346 16.1014C43.0154 15.3943 42.8168 14.679 42.6331 13.9605C42.4499 14.679 42.2571 15.3943 42.0513 16.1014C41.8461 16.8112 41.6277 17.525 41.4021 18.2434H39.8126C39.6476 17.8459 39.4679 17.374 39.2759 16.8264C39.0822 16.2764 38.8844 15.6796 38.6769 15.0303C38.4717 14.3834 38.2616 13.6983 38.0466 12.9733C37.8308 12.2519 37.6216 11.5223 37.4214 10.7839H39.5729C39.6444 11.1232 39.7256 11.496 39.8134 11.8973C39.9005 12.2994 39.9922 12.7136 40.0884 13.1394C40.1843 13.5639 40.287 13.9907 40.3919 14.4214C40.4978 14.8522 40.6062 15.2647 40.716 15.6614C40.835 15.2457 40.9515 14.8211 41.0656 14.3865C41.178 13.9511 41.289 13.5234 41.3947 13.1031C41.4989 12.6833 41.6015 12.2756 41.6951 11.8831C41.7903 11.4912 41.8749 11.1232 41.9494 10.7839H43.4274C43.5028 11.1232 43.5824 11.4912 43.6751 11.8831C43.7654 12.2756 43.8615 12.6833 43.9632 13.1031C44.0617 13.5234 44.1691 13.9511 44.2767 14.3865C44.3874 14.8211 44.5008 15.2457 44.618 15.6614C44.7288 15.2647 44.8387 14.8522 44.9496 14.4214C45.0604 13.9907 45.1646 13.5639 45.2598 13.1394C45.355 12.7136 45.4469 12.2994 45.5355 11.8973C45.6234 11.496 45.703 11.1232 45.7759 10.7839Z" fill="#03435F"/>
</mask>
<g mask="url(#mask7_6_10007)">
<path fill-rule="evenodd" clip-rule="evenodd" d="M33.9971 21.5549H51.3241V7.47248L33.9971 7.47248V21.5549Z" fill="#03435F"/>
</g>
<path fill-rule="evenodd" clip-rule="evenodd" d="M49.3428 18.2405H51.3812V10.7825H49.3428V18.2405Z" fill="#03435F"/>
<mask id="mask8_6_10007" style="mask-type:alpha" maskUnits="userSpaceOnUse" x="49" y="10" width="3" height="9">
<path d="M49.3428 18.2407V10.7828H51.3813V18.2407H49.3428Z" fill="#03435F"/>
</mask>
<g mask="url(#mask8_6_10007)">
<path fill-rule="evenodd" clip-rule="evenodd" d="M-98.3608 39.1907L189.284 39.1907V-354.87H-98.3608L-98.3608 39.1907Z" fill="#03435F"/>
</g>
<mask id="mask9_6_10007" style="mask-type:alpha" maskUnits="userSpaceOnUse" x="49" y="10" width="3" height="9">
<path d="M49.3428 18.2407V10.7828H51.3813V18.2407H49.3428Z" fill="#03435F"/>
</mask>
<g mask="url(#mask9_6_10007)">
<path fill-rule="evenodd" clip-rule="evenodd" d="M45.9185 21.552H54.8055V7.4711H45.9185V21.552Z" fill="#03435F"/>
</g>
<path fill-rule="evenodd" clip-rule="evenodd" d="M53.0024 8.92276L55.0425 8.54848V10.7864H57.0613V12.5412H55.0425V15.1655C55.0425 15.6097 55.118 15.9675 55.2681 16.2289C55.4183 16.4936 55.7227 16.6263 56.1782 16.6263C56.399 16.6263 56.6254 16.6072 56.8568 16.5635C57.0906 16.5205 57.3024 16.4594 57.4953 16.3855L57.7817 18.0307C57.5346 18.1354 57.2597 18.2245 56.9603 18.3007C56.6573 18.3754 56.2907 18.4136 55.8507 18.4136C55.2928 18.4136 54.8324 18.3358 54.4672 18.1783C54.1013 18.025 53.8091 17.8081 53.5909 17.5266C53.3725 17.2501 53.22 16.9091 53.1322 16.5142C53.0435 16.1161 53.0024 15.6758 53.0024 15.1948V8.92276Z" fill="#03435F"/>
<mask id="mask10_6_10007" style="mask-type:alpha" maskUnits="userSpaceOnUse" x="53" y="8" width="5" height="11">
<path d="M53.0024 8.92276L55.0423 8.54848V10.7864H57.0612V12.5412H55.0423V15.1655C55.0423 15.6097 55.118 15.9674 55.2681 16.2289C55.4183 16.4936 55.7227 16.6262 56.1781 16.6262C56.3988 16.6262 56.6254 16.6072 56.8568 16.5635C57.0906 16.5204 57.3024 16.4594 57.4951 16.3855L57.7816 18.0305C57.5346 18.1354 57.2596 18.2245 56.9603 18.3007C56.6573 18.3754 56.2907 18.4136 55.8507 18.4136C55.2928 18.4136 54.8323 18.3358 54.4672 18.1783C54.1011 18.0249 53.8091 17.8081 53.5909 17.5268C53.3725 17.2501 53.22 16.9093 53.1321 16.5142C53.0435 16.1161 53.0024 15.6756 53.0024 15.1949V8.92276Z" fill="#03435F"/>
</mask>
<g mask="url(#mask10_6_10007)">
<path fill-rule="evenodd" clip-rule="evenodd" d="M-98.3613 39.1907L189.283 39.1907V-354.87H-98.3613L-98.3613 39.1907Z" fill="#03435F"/>
</g>
<mask id="mask11_6_10007" style="mask-type:alpha" maskUnits="userSpaceOnUse" x="53" y="8" width="5" height="11">
<path d="M53.0024 8.92276L55.0423 8.54848V10.7864H57.0612V12.5412H55.0423V15.1655C55.0423 15.6097 55.118 15.9674 55.2681 16.2289C55.4183 16.4936 55.7227 16.6262 56.1781 16.6262C56.3988 16.6262 56.6254 16.6072 56.8568 16.5635C57.0906 16.5204 57.3024 16.4594 57.4951 16.3855L57.7816 18.0305C57.5346 18.1354 57.2596 18.2245 56.9603 18.3007C56.6573 18.3754 56.2907 18.4136 55.8507 18.4136C55.2928 18.4136 54.8323 18.3358 54.4672 18.1783C54.1011 18.0249 53.8091 17.8081 53.5909 17.5268C53.3725 17.2501 53.22 16.9093 53.1321 16.5142C53.0435 16.1161 53.0024 15.6756 53.0024 15.1949V8.92276Z" fill="#03435F"/>
</mask>
<g mask="url(#mask11_6_10007)">
<path fill-rule="evenodd" clip-rule="evenodd" d="M49.5781 21.7251H61.2062V5.23697H49.5781V21.7251Z" fill="#03435F"/>
</g>
<path fill-rule="evenodd" clip-rule="evenodd" d="M58.5029 14.5156C58.5029 13.9758 58.5876 13.4673 58.7566 12.9905C58.9256 12.512 59.1694 12.0972 59.4887 11.7419C59.8086 11.3867 60.1959 11.1068 60.6538 10.8979C61.1092 10.692 61.6295 10.5855 62.2138 10.5855C62.597 10.5855 62.9491 10.6229 63.269 10.6928C63.5892 10.7652 63.9011 10.8662 64.2005 10.9972L63.7772 12.6845C63.5843 12.6097 63.3749 12.5446 63.1453 12.4858C62.9171 12.4301 62.6602 12.4008 62.378 12.4008C61.7757 12.4008 61.325 12.5954 61.0304 12.9832C60.7309 13.372 60.5848 13.8814 60.5848 14.5156C60.5848 15.1854 60.7235 15.706 61.0043 16.0748C61.2799 16.4428 61.7674 16.628 62.4608 16.628C62.7078 16.628 62.9712 16.6032 63.256 16.5564C63.5383 16.5087 63.7984 16.434 64.038 16.3292L64.3237 18.0601C64.0855 18.1642 63.7902 18.2516 63.4341 18.3286C63.0763 18.4036 62.6847 18.4424 62.2565 18.4424C61.5991 18.4424 61.0314 18.3391 60.5578 18.1363C60.0836 17.9337 59.6921 17.6571 59.3868 17.3074C59.0791 16.957 58.8576 16.5438 58.7157 16.0668C58.5736 15.5893 58.5029 15.0712 58.5029 14.5156Z" fill="#03435F"/>
<mask id="mask12_6_10007" style="mask-type:alpha" maskUnits="userSpaceOnUse" x="58" y="10" width="7" height="9">
<path d="M60.6538 10.8979C61.1092 10.692 61.6295 10.5855 62.2138 10.5855C62.597 10.5855 62.9491 10.6228 63.269 10.6927C63.5891 10.7652 63.9011 10.866 64.2005 10.9972L63.7772 12.6844C63.5842 12.6097 63.3749 12.5446 63.1451 12.4858C62.9169 12.43 62.6602 12.4007 62.3778 12.4007C61.7757 12.4007 61.325 12.5954 61.0304 12.9832C60.7309 13.3718 60.5848 13.8813 60.5848 14.5156C60.5848 15.1854 60.7237 15.706 61.0043 16.0748C61.2799 16.4428 61.7673 16.628 62.4607 16.628C62.7078 16.628 62.9712 16.6032 63.256 16.5564C63.5383 16.5087 63.7984 16.434 64.0379 16.329L64.3236 18.0601C64.0856 18.1642 63.7902 18.2515 63.434 18.3286C63.0763 18.4034 62.6849 18.4424 62.2565 18.4424C61.599 18.4424 61.0313 18.339 60.5578 18.1362C60.0836 17.9336 59.6921 17.6571 59.3866 17.3076C59.0792 16.957 58.8576 16.5438 58.7157 16.0668C58.5736 15.5893 58.5029 15.0711 58.5029 14.5156C58.5029 13.9758 58.5876 13.4673 58.7566 12.9905C58.9256 12.512 59.1694 12.0971 59.4885 11.7417C59.8086 11.3866 60.1959 11.1068 60.6538 10.8979Z" fill="#03435F"/>
</mask>
<g mask="url(#mask12_6_10007)">
<path fill-rule="evenodd" clip-rule="evenodd" d="M-98.3608 39.1907L189.284 39.1907V-354.87H-98.3608L-98.3608 39.1907Z" fill="#03435F"/>
</g>
<mask id="mask13_6_10007" style="mask-type:alpha" maskUnits="userSpaceOnUse" x="58" y="10" width="7" height="9">
<path d="M60.6538 10.8979C61.1092 10.692 61.6295 10.5855 62.2138 10.5855C62.597 10.5855 62.9491 10.6228 63.269 10.6927C63.5891 10.7652 63.9011 10.866 64.2005 10.9972L63.7772 12.6844C63.5842 12.6097 63.3749 12.5446 63.1451 12.4858C62.9169 12.43 62.6602 12.4007 62.3778 12.4007C61.7757 12.4007 61.325 12.5954 61.0304 12.9832C60.7309 13.3718 60.5848 13.8813 60.5848 14.5156C60.5848 15.1854 60.7237 15.706 61.0043 16.0748C61.2799 16.4428 61.7673 16.628 62.4607 16.628C62.7078 16.628 62.9712 16.6032 63.256 16.5564C63.5383 16.5087 63.7984 16.434 64.0379 16.329L64.3236 18.0601C64.0856 18.1642 63.7902 18.2515 63.434 18.3286C63.0763 18.4034 62.6849 18.4424 62.2565 18.4424C61.599 18.4424 61.0313 18.339 60.5578 18.1362C60.0836 17.9336 59.6921 17.6571 59.3866 17.3076C59.0792 16.957 58.8576 16.5438 58.7157 16.0668C58.5736 15.5893 58.5029 15.0711 58.5029 14.5156C58.5029 13.9758 58.5876 13.4673 58.7566 12.9905C58.9256 12.512 59.1694 12.0971 59.4885 11.7417C59.8086 11.3866 60.1959 11.1068 60.6538 10.8979Z" fill="#03435F"/>
</mask>
<g mask="url(#mask13_6_10007)">
<path fill-rule="evenodd" clip-rule="evenodd" d="M55.0786 21.7539H67.7478V7.27403H55.0786V21.7539Z" fill="#03435F"/>
</g>
<path fill-rule="evenodd" clip-rule="evenodd" d="M65.6426 18.2407V8.91988L67.6834 8.54883V10.8138C67.8196 10.7669 67.9944 10.7216 68.2112 10.6788C68.4244 10.6366 68.6337 10.6143 68.834 10.6143C69.4173 10.6143 69.9023 10.6978 70.2912 10.8623C70.6786 11.0277 70.9912 11.2622 71.2226 11.5649C71.4574 11.8661 71.6198 12.2269 71.7176 12.641C71.8119 13.0581 71.8593 13.5224 71.8593 14.0326V18.2407H69.8193V14.286C69.8193 13.6057 69.7349 13.1241 69.5667 12.8388C69.3976 12.5582 69.0842 12.4161 68.6287 12.4161C68.4433 12.4161 68.2741 12.4328 68.1134 12.4646C67.9541 12.498 67.8106 12.5345 67.6834 12.5719V18.2407H65.6426Z" fill="#03435F"/>
<mask id="mask14_6_10007" style="mask-type:alpha" maskUnits="userSpaceOnUse" x="65" y="8" width="7" height="11">
<path d="M65.6421 8.91988L67.6828 8.54883V10.814C67.8191 10.7669 67.9939 10.7216 68.2107 10.6788C68.4239 10.6366 68.6332 10.6145 68.8335 10.6145C69.4169 10.6145 69.9019 10.6979 70.2908 10.8623C70.6781 11.0278 70.9909 11.2622 71.2221 11.565C71.4567 11.8661 71.6194 12.2269 71.7171 12.6411C71.8114 13.0582 71.8589 13.5224 71.8589 14.0327V18.2407H69.819V14.286C69.819 13.6058 69.7343 13.1241 69.5662 12.8388C69.3971 12.5583 69.0837 12.4161 68.6282 12.4161C68.4428 12.4161 68.2736 12.4328 68.1129 12.4647C67.9536 12.498 67.8101 12.5345 67.6828 12.5719V18.2407H65.6421V8.91988Z" fill="#03435F"/>
</mask>
<g mask="url(#mask14_6_10007)">
<path fill-rule="evenodd" clip-rule="evenodd" d="M-98.3613 39.1907L189.283 39.1907V-354.87H-98.3613L-98.3613 39.1907Z" fill="#03435F"/>
</g>
<mask id="mask15_6_10007" style="mask-type:alpha" maskUnits="userSpaceOnUse" x="65" y="8" width="7" height="11">
<path d="M65.6421 8.91988L67.6828 8.54883V10.814C67.8191 10.7669 67.9939 10.7216 68.2107 10.6788C68.4239 10.6366 68.6332 10.6145 68.8335 10.6145C69.4169 10.6145 69.9019 10.6979 70.2908 10.8623C70.6781 11.0278 70.9909 11.2622 71.2221 11.565C71.4567 11.8661 71.6194 12.2269 71.7171 12.6411C71.8114 13.0582 71.8589 13.5224 71.8589 14.0327V18.2407H69.819V14.286C69.819 13.6058 69.7343 13.1241 69.5662 12.8388C69.3971 12.5583 69.0837 12.4161 68.6282 12.4161C68.4428 12.4161 68.2736 12.4328 68.1129 12.4647C67.9536 12.498 67.8101 12.5345 67.6828 12.5719V18.2407H65.6421V8.91988Z" fill="#03435F"/>
</mask>
<g mask="url(#mask15_6_10007)">
<path fill-rule="evenodd" clip-rule="evenodd" d="M62.2178 21.5522H75.2833V5.23728H62.2178V21.5522Z" fill="#03435F"/>
</g>
<path fill-rule="evenodd" clip-rule="evenodd" d="M4.11377 18.2432V11.4846C4.11377 11.4846 5.13951 10.6366 7.38305 10.6366C9.42468 10.6366 10.5458 11.6929 10.5458 14.0175V18.2432H8.50656V14.0175C8.50656 12.5369 7.7909 12.4344 7.17953 12.4344C6.56818 12.4344 6.15873 12.7491 6.15873 12.7491V18.2432H4.11377Z" fill="#03435F"/>
<mask id="mask16_6_10007" style="mask-type:alpha" maskUnits="userSpaceOnUse" x="4" y="10" width="7" height="9">
<path d="M4.11377 11.4846C4.11377 11.4846 5.13951 10.6366 7.38306 10.6366C9.42468 10.6366 10.5457 11.6928 10.5457 14.0176V18.2432H8.50656V14.0176C8.50656 12.5368 7.7909 12.4344 7.17953 12.4344C6.56818 12.4344 6.15873 12.7492 6.15873 12.7492V18.2432H4.11377V11.4846Z" fill="#03435F"/>
</mask>
<g mask="url(#mask16_6_10007)">
<path fill-rule="evenodd" clip-rule="evenodd" d="M-98.3613 39.1907L189.283 39.1907V-354.87H-98.3613L-98.3613 39.1907Z" fill="#03435F"/>
</g>
<mask id="mask17_6_10007" style="mask-type:alpha" maskUnits="userSpaceOnUse" x="4" y="10" width="7" height="9">
<path d="M4.11377 11.4846C4.11377 11.4846 5.13951 10.6366 7.38306 10.6366C9.42468 10.6366 10.5457 11.6928 10.5457 14.0176V18.2432H8.50656V14.0176C8.50656 12.5368 7.7909 12.4344 7.17953 12.4344C6.56818 12.4344 6.15873 12.7492 6.15873 12.7492V18.2432H4.11377V11.4846Z" fill="#03435F"/>
</mask>
<g mask="url(#mask17_6_10007)">
<path fill-rule="evenodd" clip-rule="evenodd" d="M0.689453 21.5547H13.9699L13.9699 7.32527H0.689453L0.689453 21.5547Z" fill="#03435F"/>
</g>
<path fill-rule="evenodd" clip-rule="evenodd" d="M0.271484 18.2434L0.271484 8.92096L2.31312 8.54896L2.31312 18.2434H0.271484Z" fill="#03435F"/>
<mask id="mask18_6_10007" style="mask-type:alpha" maskUnits="userSpaceOnUse" x="0" y="8" width="3" height="11">
<path d="M0.271484 8.92109L2.31312 8.54896L2.31312 18.2434H0.271484L0.271484 8.92109Z" fill="#03435F"/>
</mask>
<g mask="url(#mask18_6_10007)">
<path fill-rule="evenodd" clip-rule="evenodd" d="M-98.3613 39.1907L189.283 39.1907V-354.87H-98.3613L-98.3613 39.1907Z" fill="#03435F"/>
</g>
<mask id="mask19_6_10007" style="mask-type:alpha" maskUnits="userSpaceOnUse" x="0" y="8" width="3" height="11">
<path d="M0.271484 8.92109L2.31312 8.54896L2.31312 18.2434H0.271484L0.271484 8.92109Z" fill="#03435F"/>
</mask>
<g mask="url(#mask19_6_10007)">
<path fill-rule="evenodd" clip-rule="evenodd" d="M-3.15283 21.5549H5.73757L5.73757 5.23764H-3.15283L-3.15283 21.5549Z" fill="#03435F"/>
</g>
<path fill-rule="evenodd" clip-rule="evenodd" d="M24.3794 15.0495H19.7872C19.7872 15.0495 19.8898 16.6334 21.929 16.6334C22.9499 16.6334 23.9708 16.3178 23.9708 16.3178L24.1751 18.0098C24.1751 18.0098 23.1551 18.4287 21.7272 18.4287C19.6847 18.4287 17.8481 17.374 17.8481 14.4169C17.8481 12.0914 19.276 10.6148 21.317 10.6148C24.3794 10.6148 24.5845 13.7794 24.3794 15.0495ZM21.2168 12.0914C19.8898 12.0914 19.7872 13.5695 19.7872 13.5695H22.6429C22.6429 13.5695 22.5429 12.0914 21.2168 12.0914Z" fill="#03435F"/>
<mask id="mask20_6_10007" style="mask-type:alpha" maskUnits="userSpaceOnUse" x="17" y="10" width="8" height="9">
<path d="M17.8481 14.4168C17.8481 12.0913 19.276 10.6147 21.3168 10.6147C24.3793 10.6147 24.5844 13.7794 24.3793 15.0494H19.7872C19.7872 15.0494 19.8898 16.6333 21.9289 16.6333C22.9498 16.6333 23.9706 16.3177 23.9706 16.3177L24.1749 18.0097C24.1749 18.0097 23.1549 18.4287 21.7271 18.4287C19.6847 18.4287 17.8481 17.374 17.8481 14.4168ZM21.2167 12.0913C19.8898 12.0913 19.7872 13.5695 19.7872 13.5695H22.6429C22.6429 13.5695 22.5428 12.0913 21.2167 12.0913Z" fill="#03435F"/>
</mask>
<g mask="url(#mask20_6_10007)">
<path fill-rule="evenodd" clip-rule="evenodd" d="M-98.3613 39.1904L189.283 39.1904V-354.871H-98.3613L-98.3613 39.1904Z" fill="#03435F"/>
</g>
<mask id="mask21_6_10007" style="mask-type:alpha" maskUnits="userSpaceOnUse" x="17" y="10" width="8" height="9">
<path d="M17.8481 14.4168C17.8481 12.0913 19.276 10.6147 21.3168 10.6147C24.3793 10.6147 24.5844 13.7794 24.3793 15.0494H19.7872C19.7872 15.0494 19.8898 16.6333 21.9289 16.6333C22.9498 16.6333 23.9706 16.3177 23.9706 16.3177L24.1749 18.0097C24.1749 18.0097 23.1549 18.4287 21.7271 18.4287C19.6847 18.4287 17.8481 17.374 17.8481 14.4168ZM21.2167 12.0913C19.8898 12.0913 19.7872 13.5695 19.7872 13.5695H22.6429C22.6429 13.5695 22.5428 12.0913 21.2167 12.0913Z" fill="#03435F"/>
</mask>
<g mask="url(#mask21_6_10007)">
<path fill-rule="evenodd" clip-rule="evenodd" d="M14.4238 21.74H27.8608V7.30309H14.4238L14.4238 21.74Z" fill="#03435F"/>
</g>
<mask id="mask22_6_10007" style="mask-type:alpha" maskUnits="userSpaceOnUse" x="74" y="7" width="14" height="17">
<path d="M74.5635 8.55069C74.5635 8.10006 80.4331 7.12761 84.3696 7.12761C86.0767 7.12761 87.4202 7.3105 87.7639 7.79801C89.5364 10.0615 77.0583 24.262 76.0185 23.8312C75.1847 23.6158 82.6712 14.5772 81.4232 10.9175C80.8002 8.98223 74.5635 9.19749 74.5635 8.55069Z" fill="#ED342B"/>
</mask>
<g mask="url(#mask22_6_10007)">
<path fill-rule="evenodd" clip-rule="evenodd" d="M71.1392 27.1523H91.3602V3.81621H71.1392V27.1523Z" fill="#ED342B"/>
</g>
<mask id="mask23_6_10007" style="mask-type:alpha" maskUnits="userSpaceOnUse" x="85" y="0" width="6" height="6">
<path d="M85.165 2.956C85.165 1.41027 86.3755 0.159367 87.8674 0.159367C89.3607 0.159367 90.5696 1.41027 90.5696 2.956C90.5696 4.50251 89.3607 5.75342 87.8674 5.75342C86.3755 5.75342 85.165 4.50251 85.165 2.956Z" fill="#ED342B"/>
</mask>
<g mask="url(#mask23_6_10007)">
<path fill-rule="evenodd" clip-rule="evenodd" d="M81.7407 9.06494H93.9939V-3.15222H81.7407V9.06494Z" fill="#ED342B"/>
</g>
</g>
<defs>
<clipPath id="clip0_6_10007">
<rect width="90.6" height="24" fill="white" transform="translate(0.103516)"/>
</clipPath>
</defs>
</svg>
