<svg width="105" height="95" viewBox="0 0 105 95" fill="none" xmlns="http://www.w3.org/2000/svg">
<circle cx="45" cy="45" r="45" fill="#EAF2F9"/>
<path d="M101.61 54.879V54.8538C101.61 54.1513 102.18 53.5815 102.882 53.5815H103.632C104.334 53.5815 104.904 54.1513 104.904 54.8538V54.879C104.904 55.5815 104.334 56.1513 103.632 56.1513H102.882C102.178 56.1513 101.61 55.5815 101.61 54.879Z" fill="black"/>
<path d="M26.8926 49.7529V49.7277C26.8926 49.0252 27.4623 48.4554 28.1648 48.4554H28.6254C29.3279 48.4554 29.8976 49.0252 29.8976 49.7277V49.7529C29.8976 50.4554 29.3279 51.0252 28.6254 51.0252H28.1648C27.4606 51.0252 26.8926 50.4554 26.8926 49.7529Z" fill="#EAF2F9"/>
<path d="M25 60.0454V60.0202C25 59.3177 25.5697 58.7479 26.2723 58.7479H29.1529C29.8555 58.7479 30.4252 59.3177 30.4252 60.0202V60.0454C30.4252 60.7479 29.8555 61.3177 29.1529 61.3177H26.2723C25.5697 61.316 25 60.7479 25 60.0454Z" fill="#EAF2F9"/>
<path d="M86.7023 43.3025H94.7191C95.4032 43.3025 95.9595 43.8571 95.9595 44.5428V44.6336C95.9595 45.3176 95.4048 45.8739 94.7191 45.8739H90.4855C89.8015 45.8739 89.2452 46.4286 89.2452 47.1143V47.205C89.2452 47.8891 89.7998 48.4454 90.4855 48.4454H99.0637C99.7477 48.4454 100.304 49 100.304 49.6857V49.7765C100.304 50.4605 99.7494 51.0168 99.0637 51.0168H93.1443C92.4603 51.0168 91.904 51.5714 91.904 52.2571V52.3479C91.904 53.0319 92.4586 53.5882 93.1443 53.5882H99.0956C99.7796 53.5882 100.336 54.1428 100.336 54.8286V54.9193C100.336 55.6033 99.7813 56.1596 99.0956 56.1596H94.6922C94.0082 56.1596 93.4519 56.7143 93.4519 57.4V57.4907C93.4519 58.1748 94.0065 58.7311 94.6922 58.7311H100.911C101.595 58.7311 102.151 59.2857 102.151 59.9714V60.0622C102.151 60.7462 101.596 61.3025 100.911 61.3025H90.7544C90.0704 61.3025 89.5141 61.8571 89.5141 62.5428V62.6336C89.5141 63.3176 90.0687 63.8739 90.7544 63.8739H94.4233C95.1074 63.8739 95.6637 64.4286 95.6637 65.1143V65.205C95.6637 65.8891 95.109 66.4454 94.4233 66.4454H84.8048C84.1208 66.4454 83.5645 67 83.5645 67.6857V67.7765C83.5645 68.4605 84.1191 69.0168 84.8048 69.0168H87.8956C88.5796 69.0168 89.1359 69.5714 89.1359 70.2571V70.3479C89.1359 71.0319 88.5813 71.5882 87.8956 71.5882H81.309C80.625 71.5882 80.0687 72.1428 80.0687 72.8286V72.9193C80.0687 73.6033 80.6233 74.1596 81.309 74.1596H89.7107C90.3948 74.1596 90.9511 74.7143 90.9511 75.4V75.4907C90.9511 76.1748 90.3964 76.7311 89.7107 76.7311H71.0889C70.4048 76.7311 69.8485 77.2857 69.8485 77.9714V78.0622C69.8485 78.7462 70.4032 79.3025 71.0889 79.3025H81.7914C82.4754 79.3025 83.0317 79.8571 83.0317 80.5428V80.6336C83.0317 81.3176 82.4771 81.8739 81.7914 81.8739H62.2149C61.5309 81.8739 60.9746 82.4286 60.9746 83.1143V83.205C60.9746 83.8891 61.5292 84.4454 62.2149 84.4454H63.462C64.146 84.4454 64.7023 85 64.7023 85.6857V85.7765C64.7023 86.4605 64.1477 87.0168 63.462 87.0168H56.7494C56.0653 87.0168 55.509 86.4622 55.509 85.7765V85.6857C55.509 85.0017 56.0637 84.4454 56.7494 84.4454H56.7746C57.4586 84.4454 58.0149 83.8907 58.0149 83.205V83.1143C58.0149 82.4302 57.4603 81.8739 56.7746 81.8739H48.1645C47.4805 81.8739 46.9242 81.3193 46.9242 80.6336V80.5428C46.9242 79.8588 47.4788 79.3025 48.1645 79.3025H50.9292C51.6132 79.3025 52.1695 78.7479 52.1695 78.0622V77.9714C52.1695 77.2874 51.6149 76.7311 50.9292 76.7311H39.0233C38.3393 76.7311 37.783 76.1765 37.783 75.4907V75.4C37.783 74.716 38.3376 74.1596 39.0233 74.1596H48.4485C49.1326 74.1596 49.6889 73.605 49.6889 72.9193V72.8286C49.6889 72.1445 49.1343 71.5882 48.4485 71.5882H46.4065C45.7225 71.5882 45.1662 71.0336 45.1662 70.3479V70.2571C45.1662 69.5731 45.7208 69.0168 46.4065 69.0168H49.0973C49.7813 69.0168 50.3376 68.4622 50.3376 67.7765V67.6857C50.3376 67.0017 49.783 66.4454 49.0973 66.4454H31.4754C30.7914 66.4454 30.2351 65.8907 30.2351 65.205V65.1143C30.2351 64.4302 30.7897 63.8739 31.4754 63.8739H41.9948C42.6788 63.8739 43.2351 63.3193 43.2351 62.6336V62.5428C43.2351 61.8588 42.6805 61.3025 41.9948 61.3025H33.1864C32.5023 61.3025 31.946 60.7479 31.946 60.0622V59.9714C31.946 59.2874 32.5006 58.7311 33.1864 58.7311H36.2166C36.9006 58.7311 37.4569 58.1765 37.4569 57.4907V57.4C37.4569 56.716 36.9023 56.1596 36.2166 56.1596H27.3443C26.6603 56.1596 26.104 55.605 26.104 54.9193V54.8286C26.104 54.1445 26.6586 53.5882 27.3443 53.5882H32.8502C33.5343 53.5882 34.0906 53.0336 34.0906 52.3479V52.2571C34.0906 51.5731 33.5359 51.0168 32.8502 51.0168H32.1611C31.4771 51.0168 30.9208 50.4622 30.9208 49.7765V49.6857C30.9208 49.0017 31.4754 48.4454 32.1611 48.4454H38.4132C39.0973 48.4454 39.6536 47.8907 39.6536 47.205V47.1143C39.6536 46.4302 39.099 45.8739 38.4132 45.8739H33.9561C33.2721 45.8739 32.7158 45.3193 32.7158 44.6336V44.5428C32.7158 43.8588 33.2704 43.3025 33.9561 43.3025H41.7527C42.4368 43.3025 42.9931 42.7479 42.9931 42.0622V41.9714C42.9931 41.2874 42.4385 40.7311 41.7527 40.7311H38.2653C37.5813 40.7311 37.025 40.1765 37.025 39.4907V39.4C37.025 38.716 37.5796 38.1596 38.2653 38.1596H43.0822C43.7662 38.1596 44.3225 37.605 44.3225 36.9193V36.8286C44.3225 36.1445 43.7679 35.5882 43.0822 35.5882H41.783C41.099 35.5882 40.5427 35.0336 40.5427 34.3479V34.2571C40.5427 33.5731 41.0973 33.0168 41.783 33.0168H49.0956C49.7796 33.0168 50.3359 32.4622 50.3359 31.7765V31.6857C50.3359 31.0017 49.7813 30.4454 49.0956 30.4454H47.346C46.662 30.4454 46.1057 29.8907 46.1057 29.205V29.1143C46.1057 28.4302 46.6603 27.8739 47.346 27.8739H64.5578C65.2418 27.8739 65.7981 27.3193 65.7981 26.6336V26.5428C65.7981 25.8588 65.2435 25.3025 64.5578 25.3025H61.8536C61.1695 25.3025 60.6133 24.7479 60.6133 24.0622V23.9714C60.6133 23.2874 61.1679 22.7311 61.8536 22.7311H69.7544C70.4385 22.7311 70.9948 23.2857 70.9948 23.9714V24.0622C70.9948 24.7462 70.4401 25.3025 69.7544 25.3025H69.6418C68.9578 25.3025 68.4015 25.8571 68.4015 26.5428V26.6336C68.4015 27.3176 68.9561 27.8739 69.6418 27.8739H73.8317C74.5158 27.8739 75.0721 28.4286 75.0721 29.1143V29.205C75.0721 29.8891 74.5174 30.4454 73.8317 30.4454H72.7443C72.0603 30.4454 71.504 31 71.504 31.6857V31.7765C71.504 32.4605 72.0586 33.0168 72.7443 33.0168H85.3124C85.9964 33.0168 86.5527 33.5714 86.5527 34.2571V34.3479C86.5527 35.0319 85.9981 35.5882 85.3124 35.5882H80.1326C79.4485 35.5882 78.8922 36.1428 78.8922 36.8286V36.9193C78.8922 37.6033 79.4469 38.1596 80.1326 38.1596H92.2166C92.9006 38.1596 93.4569 38.7143 93.4569 39.4V39.4907C93.4569 40.1748 92.9023 40.7311 92.2166 40.7311H86.7057C86.0217 40.7311 85.4653 41.2857 85.4653 41.9714V42.0622C85.4637 42.7479 86.0183 43.3025 86.7023 43.3025Z" fill="#EAF2F9"/>
<path d="M77.2371 27.8925H77.8388C78.5413 27.8925 79.1111 28.4622 79.1111 29.1647V29.1899C79.1111 29.8925 78.5413 30.4622 77.8388 30.4622H77.2371C76.5346 30.4622 75.9648 29.8925 75.9648 29.1899V29.1647C75.9648 28.4622 76.5346 27.8925 77.2371 27.8925Z" fill="#EAF2F9"/>
<path d="M35.5765 69.0184H41.4067C42.1092 69.0184 42.679 69.5882 42.679 70.2907V70.3159C42.679 71.0184 42.1092 71.5882 41.4067 71.5882H35.5765C34.8739 71.5882 34.3042 71.0184 34.3042 70.3159V70.2907C34.3042 69.5882 34.8739 69.0184 35.5765 69.0184Z" fill="#EAF2F9"/>
<path d="M36.617 33.0236H37.7817C38.4842 33.0236 39.054 33.5933 39.054 34.2958V34.321C39.054 35.0236 38.4842 35.5933 37.7817 35.5933H36.617C35.9145 35.5933 35.3447 35.0236 35.3447 34.321V34.2958C35.3464 33.5933 35.9145 33.0236 36.617 33.0236Z" fill="#EAF2F9"/>
<path d="M65.8337 77.6572C54.3816 77.6572 45.064 68.3362 45.064 56.8807C45.064 45.4202 54.3816 36.0958 65.8337 36.0958C77.2892 36.0958 86.6085 45.4202 86.6085 56.8807C86.6085 68.3378 77.2892 77.6572 65.8337 77.6572ZM65.8337 37.2589C55.0219 37.2589 46.2253 46.0605 46.2253 56.8807C46.2253 67.6958 55.0219 76.4958 65.8337 76.4958C76.6488 76.4958 85.4472 67.6975 85.4472 56.8807C85.4472 46.0605 76.6488 37.2589 65.8337 37.2589Z" fill="#1A3967"/>
<path d="M54.2186 78.3597H50.9077C50.5867 78.3597 50.3262 78.0992 50.3262 77.7782C50.3262 77.4571 50.5867 77.1966 50.9077 77.1966H53.9783L56.4337 74.7445C56.6606 74.5177 57.0287 74.5177 57.2539 74.7462C57.4808 74.9731 57.4791 75.3395 57.2522 75.5664L54.627 78.1882C54.5194 78.2975 54.3716 78.3597 54.2186 78.3597Z" fill="#1A3967"/>
<path d="M45.6355 57.4621H33.4052C33.0842 57.4621 32.8237 57.2016 32.8237 56.8806C32.8237 56.5596 33.0842 56.2991 33.4052 56.2991H45.6355C45.9565 56.2991 46.217 56.5596 46.217 56.8806C46.217 57.2016 45.9565 57.4621 45.6355 57.4621Z" fill="#1A3967"/>
<path d="M43.7378 57.5125C43.5899 57.5125 43.4403 57.4554 43.3277 57.3428L40.8168 54.8336H35.7529C35.4319 54.8336 35.1714 54.5731 35.1714 54.252C35.1714 53.931 35.4319 53.6705 35.7529 53.6705H41.0554C41.2084 53.6705 41.3579 53.731 41.4672 53.8403L44.1479 56.521C44.3747 56.7478 44.3747 57.1159 44.1479 57.3428C44.0353 57.4554 43.8857 57.5125 43.7378 57.5125Z" fill="#1A3967"/>
<path d="M48.5312 77.7782C48.5312 78.4336 49.064 78.9664 49.7195 78.9664C50.3749 78.9664 50.9111 78.4336 50.9111 77.7782C50.9111 77.1227 50.3749 76.5883 49.7195 76.5883C49.0657 76.5883 48.5312 77.1227 48.5312 77.7782Z" fill="white"/>
<path d="M49.7209 79.5479C48.7444 79.5479 47.9512 78.7546 47.9512 77.7782C47.9512 76.8017 48.7444 76.0084 49.7209 76.0084C50.6974 76.0084 51.4924 76.8017 51.4924 77.7782C51.4924 78.753 50.6974 79.5479 49.7209 79.5479ZM49.7209 77.1698C49.3848 77.1698 49.1125 77.442 49.1125 77.7782C49.1125 78.1126 49.3848 78.3849 49.7209 78.3849C50.0571 78.3849 50.331 78.1126 50.331 77.7782C50.331 77.442 50.0571 77.1698 49.7209 77.1698Z" fill="#1A3967"/>
<path d="M31.0288 56.8806C31.0288 57.5377 31.5616 58.0638 32.217 58.0638C32.8725 58.0638 33.407 57.5377 33.407 56.8806C33.407 56.2234 32.8742 55.6907 32.217 55.6907C31.5616 55.6907 31.0288 56.2234 31.0288 56.8806Z" fill="white"/>
<path d="M32.217 58.6454C31.2422 58.6454 30.4473 57.8538 30.4473 56.8807C30.4473 55.9042 31.2405 55.1093 32.217 55.1093C33.1935 55.1093 33.9868 55.9042 33.9868 56.8807C33.9868 57.8538 33.1935 58.6454 32.217 58.6454ZM32.217 56.2723C31.8826 56.2723 31.6103 56.5445 31.6103 56.8807C31.6103 57.2135 31.8826 57.4824 32.217 57.4824C32.5531 57.4824 32.8254 57.2135 32.8254 56.8807C32.8254 56.5445 32.5531 56.2723 32.217 56.2723Z" fill="#1A3967"/>
<path d="M41.664 60.173H37.5581C37.2371 60.173 36.9766 59.9125 36.9766 59.5915C36.9766 59.2705 37.2371 59.01 37.5581 59.01H41.3782L43.2774 56.5562C43.474 56.3008 43.8404 56.2571 44.0908 56.452C44.3446 56.6487 44.3917 57.0134 44.195 57.2655L42.1211 59.9462C42.0119 60.089 41.8438 60.173 41.664 60.173Z" fill="#1A3967"/>
<path d="M62.3615 37.4772C62.1884 37.4772 62.017 37.3999 61.9027 37.252L57.1599 31.1512H51.5649C51.2439 31.1512 50.9834 30.8907 50.9834 30.5697C50.9834 30.2487 51.2439 29.9882 51.5649 29.9882H57.4456C57.6237 29.9882 57.7935 30.0705 57.9044 30.2117L62.8204 36.5411C63.017 36.7949 62.9716 37.1579 62.7178 37.3562C62.612 37.4369 62.4859 37.4772 62.3615 37.4772Z" fill="#1A3967"/>
<path d="M49.4268 30.5714C49.4268 31.2336 49.9595 31.768 50.6167 31.768C51.2721 31.768 51.8049 31.2336 51.8049 30.5714C51.8049 29.9159 51.2721 29.3882 50.6167 29.3882C49.9612 29.3882 49.4268 29.9159 49.4268 30.5714Z" fill="white"/>
<path d="M50.6169 32.3478C49.6404 32.3478 48.8472 31.5512 48.8472 30.5713C48.8472 29.5982 49.6404 28.8066 50.6169 28.8066C51.5917 28.8066 52.3867 29.5982 52.3867 30.5713C52.3867 31.5512 51.5917 32.3478 50.6169 32.3478ZM50.6169 29.9697C50.2808 29.9697 50.0085 30.2386 50.0085 30.5713C50.0085 30.9108 50.2808 31.1865 50.6169 31.1865C50.9514 31.1865 51.2236 30.9108 51.2236 30.5713C51.2236 30.2386 50.9514 29.9697 50.6169 29.9697Z" fill="#1A3967"/>
<path d="M62.1294 30.5714C62.1294 31.2336 62.6622 31.768 63.3176 31.768C63.9748 31.768 64.5075 31.2336 64.5075 30.5714C64.5075 29.9159 63.9748 29.3882 63.3176 29.3882C62.6622 29.3882 62.1294 29.9159 62.1294 30.5714Z" fill="white"/>
<path d="M63.3196 32.3478C62.3431 32.3478 61.5498 31.5512 61.5498 30.5713C61.5498 29.5982 62.3431 28.8066 63.3196 28.8066C64.296 28.8066 65.091 29.5982 65.091 30.5713C65.0893 31.5512 64.2943 32.3478 63.3196 32.3478ZM63.3196 29.9697C62.9834 29.9697 62.7111 30.2386 62.7111 30.5713C62.7111 30.9108 62.9834 31.1865 63.3196 31.1865C63.6557 31.1865 63.928 30.9108 63.928 30.5713C63.928 30.2386 63.654 29.9697 63.3196 29.9697Z" fill="#1A3967"/>
<path d="M60.1127 34.3697C59.9396 34.3697 59.7682 34.2924 59.6539 34.1445C59.464 33.8991 59.501 33.5495 59.7329 33.3495C59.9211 33.168 61.106 32.0268 62.022 31.0066C62.2354 30.768 62.6035 30.7495 62.8421 30.9629C63.0808 31.1764 63.101 31.5445 62.8858 31.7831C60.3178 34.6436 60.5161 34.2117 60.469 34.247C60.3631 34.3293 60.2388 34.3697 60.1127 34.3697Z" fill="#1A3967"/>
<path d="M82.6639 83.3025H76.7059C76.5278 83.3025 76.3597 83.2202 76.2504 83.0807L71.2656 76.7614C71.0673 76.5093 71.1093 76.1446 71.3614 75.9462C71.6118 75.7479 71.9782 75.7899 72.1765 76.042L76.9883 82.1395H82.6656C82.9866 82.1395 83.2471 82.4 83.2471 82.721C83.2454 83.042 82.9849 83.3025 82.6639 83.3025Z" fill="#1A3967"/>
<path d="M85.0419 82.7209C85.0419 82.0587 84.5109 81.531 83.8554 81.531C83.1966 81.531 82.6621 82.0587 82.6621 82.7209C82.6621 83.3764 83.1949 83.9108 83.8554 83.9108C84.5125 83.9108 85.0419 83.3764 85.0419 82.7209Z" fill="white"/>
<path d="M83.8556 84.4924C82.8775 84.4924 82.0825 83.6974 82.0825 82.7209C82.0825 81.7444 82.8775 80.9512 83.8556 80.9512C84.8304 80.9512 85.6237 81.7444 85.6237 82.7209C85.6237 83.6974 84.8304 84.4924 83.8556 84.4924ZM83.8556 82.1125C83.5128 82.1125 83.2439 82.3797 83.2439 82.7209C83.2439 83.0571 83.5178 83.3293 83.8556 83.3293C84.1901 83.3293 84.4607 83.0571 84.4607 82.7209C84.4624 82.3797 84.1951 82.1125 83.8556 82.1125Z" fill="#1A3967"/>
<path d="M71.9513 82.7209C71.9513 82.0587 71.4186 81.531 70.7631 81.531C70.106 81.531 69.5698 82.0587 69.5698 82.7209C69.5698 83.3764 70.106 83.9108 70.7631 83.9108C71.4186 83.9108 71.9513 83.3764 71.9513 82.7209Z" fill="white"/>
<path d="M70.7631 84.4924C69.7849 84.4924 68.9883 83.6974 68.9883 82.7209C68.9883 81.7444 69.7849 80.9512 70.7631 80.9512C71.7379 80.9512 72.5328 81.7444 72.5328 82.7209C72.5328 83.6974 71.7379 84.4924 70.7631 84.4924ZM70.7631 82.1125C70.4253 82.1125 70.1513 82.3848 70.1513 82.7209C70.1513 83.0571 70.4253 83.3293 70.7631 83.3293C71.0975 83.3293 71.3698 83.0571 71.3698 82.7209C71.3698 82.3848 71.0975 82.1125 70.7631 82.1125Z" fill="#1A3967"/>
<path d="M71.6216 82.4857C71.4821 82.4857 71.3443 82.4352 71.2334 82.3361C70.9947 82.1226 70.9746 81.7546 71.1897 81.5159C73.7611 78.6504 73.4485 78.9378 73.4956 78.9025C73.7493 78.7041 74.1124 78.7495 74.3107 78.9999C74.504 79.2453 74.467 79.5966 74.2351 79.7966C74.0485 79.9764 72.9712 81.2689 72.0519 82.2924C71.9393 82.4201 71.7813 82.4857 71.6216 82.4857Z" fill="#1A3967"/>
<path d="M98.1931 57.4621H85.9629C85.6419 57.4621 85.3813 57.2016 85.3813 56.8806C85.3813 56.5596 85.6419 56.2991 85.9629 56.2991H98.1931C98.5141 56.2991 98.7746 56.5596 98.7746 56.8806C98.7746 57.2016 98.5141 57.4621 98.1931 57.4621Z" fill="#1A3967"/>
<path d="M87.8603 57.5125C87.7511 57.5125 87.6385 57.4806 87.5393 57.4151C87.2721 57.2369 87.1998 56.8773 87.378 56.61L89.1629 53.9294C89.2704 53.768 89.4519 53.6705 89.6469 53.6705H93.183C93.504 53.6705 93.7645 53.931 93.7645 54.252C93.7645 54.5731 93.504 54.8336 93.183 54.8336H89.9561L88.3444 57.2537C88.2334 57.4201 88.0503 57.5125 87.8603 57.5125Z" fill="#1A3967"/>
<path d="M100.572 56.8806C100.572 57.5377 100.04 58.0638 99.3799 58.0638C98.7245 58.0638 98.1934 57.5377 98.1934 56.8806C98.1934 56.2234 98.7245 55.6907 99.3799 55.6907C100.04 55.6907 100.572 56.2234 100.572 56.8806Z" fill="white"/>
<path d="M99.3799 58.6454C98.4051 58.6454 97.6118 57.8538 97.6118 56.8807C97.6118 55.9042 98.4051 55.1093 99.3799 55.1093C100.356 55.1093 101.151 55.9042 101.151 56.8807C101.151 57.8538 100.356 58.6454 99.3799 58.6454ZM99.3799 56.2723C99.0454 56.2723 98.7748 56.5445 98.7748 56.8807C98.7748 57.2135 99.0454 57.4824 99.3799 57.4824C99.7211 57.4824 99.99 57.2185 99.99 56.8807C99.99 56.5445 99.716 56.2723 99.3799 56.2723Z" fill="#1A3967"/>
<path d="M95.8437 60.1731H90.5412C90.3866 60.1731 90.2387 60.1109 90.1294 60.0034L87.4504 57.3227C87.2236 57.0958 87.2236 56.7277 87.4504 56.5009C87.6773 56.274 88.0454 56.274 88.2723 56.5009L90.7815 59.0101H95.8437C96.1647 59.0101 96.4252 59.2706 96.4252 59.5916C96.4252 59.9126 96.1647 60.1731 95.8437 60.1731Z" fill="#1A3967"/>
<path d="M49.3801 45.7429H43.8271C43.5061 45.7429 43.2456 45.4824 43.2456 45.1613C43.2456 44.8403 43.5061 44.5798 43.8271 44.5798H49.3801C49.7011 44.5798 49.9616 44.8403 49.9616 45.1613C49.9616 45.484 49.7011 45.7429 49.3801 45.7429Z" fill="#1A3967"/>
<path d="M41.4487 45.163C41.4487 45.8184 41.9798 46.3529 42.6386 46.3529C43.2975 46.3529 43.8302 45.8184 43.8302 45.163C43.8302 44.5075 43.2992 43.9747 42.6386 43.9747C41.9798 43.9731 41.4487 44.5058 41.4487 45.163Z" fill="white"/>
<path d="M42.6369 46.9327C41.6605 46.9327 40.8672 46.1394 40.8672 45.1629C40.8672 44.1865 41.6605 43.3932 42.6369 43.3932C43.6134 43.3932 44.4084 44.1865 44.4084 45.1629C44.4084 46.1377 43.6134 46.9327 42.6369 46.9327ZM42.6369 44.5545C42.3008 44.5545 42.0285 44.8268 42.0285 45.1629C42.0285 45.4991 42.3008 45.7713 42.6369 45.7713C42.9731 45.7713 43.247 45.4991 43.247 45.1629C43.247 44.8268 42.9731 44.5545 42.6369 44.5545Z" fill="#1A3967"/>
<path d="M49.3801 69.353H43.8271C43.5061 69.353 43.2456 69.0925 43.2456 68.7715C43.2456 68.4504 43.5061 68.1899 43.8271 68.1899H49.3801C49.7011 68.1899 49.9616 68.4504 49.9616 68.7715C49.9616 69.0925 49.7011 69.353 49.3801 69.353Z" fill="#1A3967"/>
<path d="M41.4487 68.7714C41.4487 69.4285 41.9798 69.963 42.6386 69.963C43.2975 69.963 43.8302 69.4285 43.8302 68.7714C43.8302 68.1159 43.2992 67.5831 42.6386 67.5831C41.9798 67.5831 41.4487 68.1159 41.4487 68.7714Z" fill="white"/>
<path d="M42.6369 70.5429C41.6605 70.5429 40.8672 69.7479 40.8672 68.7715C40.8672 67.7967 41.6605 67.0017 42.6369 67.0017C43.6134 67.0017 44.4084 67.795 44.4084 68.7715C44.4084 69.7479 43.6134 70.5429 42.6369 70.5429ZM42.6369 68.1647C42.3008 68.1647 42.0285 68.437 42.0285 68.7715C42.0285 69.1076 42.3008 69.3815 42.6369 69.3815C42.9731 69.3815 43.247 69.1093 43.247 68.7715C43.247 68.437 42.9731 68.1647 42.6369 68.1647Z" fill="#1A3967"/>
<path d="M87.694 69.353H82.1377C81.8167 69.353 81.5562 69.0925 81.5562 68.7715C81.5562 68.4504 81.8167 68.1899 82.1377 68.1899H87.694C88.015 68.1899 88.2755 68.4504 88.2755 68.7715C88.2755 69.0925 88.015 69.353 87.694 69.353Z" fill="#1A3967"/>
<path d="M90.0708 68.7714C90.0708 69.4285 89.538 69.963 88.8826 69.963C88.2271 69.963 87.6943 69.4285 87.6943 68.7714C87.6943 68.1159 88.2271 67.5831 88.8826 67.5831C89.5397 67.5831 90.0708 68.1159 90.0708 68.7714Z" fill="white"/>
<path d="M88.8825 70.5429C87.9078 70.5429 87.1128 69.7479 87.1128 68.7715C87.1128 67.7967 87.9061 67.0017 88.8825 67.0017C89.8573 67.0017 90.6523 67.795 90.6523 68.7715C90.6523 69.7479 89.859 70.5429 88.8825 70.5429ZM88.8825 68.1647C88.5481 68.1647 88.2758 68.437 88.2758 68.7715C88.2758 69.1076 88.5481 69.3815 88.8825 69.3815C89.217 69.3815 89.4893 69.1093 89.4893 68.7715C89.4909 68.437 89.2187 68.1647 88.8825 68.1647Z" fill="#1A3967"/>
<path d="M87.694 45.6723H82.1377C81.8167 45.6723 81.5562 45.4118 81.5562 45.0908C81.5562 44.7698 81.8167 44.5093 82.1377 44.5093H87.694C88.015 44.5093 88.2755 44.7698 88.2755 45.0908C88.2755 45.4135 88.015 45.6723 87.694 45.6723Z" fill="#1A3967"/>
<path d="M90.0708 45.084C90.0708 45.7461 89.538 46.2739 88.8826 46.2739C88.2271 46.2739 87.6943 45.7478 87.6943 45.084C87.6943 44.4285 88.2271 43.9008 88.8826 43.9008C89.5397 43.9024 90.0708 44.4302 90.0708 45.084Z" fill="white"/>
<path d="M88.8825 46.8554C87.9078 46.8554 87.1128 46.0621 87.1128 45.0856C87.1128 44.1125 87.9061 43.3209 88.8825 43.3209C89.8573 43.3209 90.6523 44.1125 90.6523 45.0856C90.6523 46.0604 89.859 46.8554 88.8825 46.8554ZM88.8825 44.4823C88.5481 44.4823 88.2758 44.7512 88.2758 45.0839C88.2758 45.4251 88.5414 45.6924 88.8825 45.6924C89.2237 45.6924 89.4893 45.4251 89.4893 45.0839C89.4909 44.7529 89.2187 44.4823 88.8825 44.4823Z" fill="#1A3967"/>
<path d="M75.0674 39.2453C74.9195 39.2453 74.7699 39.1882 74.6557 39.0739C74.4288 38.847 74.4304 38.4806 74.6573 38.2537L77.2826 35.6302C77.3901 35.521 77.5397 35.4604 77.6926 35.4604H81.0019C81.3229 35.4604 81.5834 35.721 81.5834 36.042C81.5834 36.363 81.3229 36.6235 81.0019 36.6235H77.933L75.4758 39.0773C75.3649 39.1882 75.217 39.2453 75.0674 39.2453Z" fill="#1A3967"/>
<path d="M83.3796 36.0403C83.3796 35.3865 82.8468 34.8521 82.1897 34.8521C81.5342 34.8521 81.0015 35.3865 81.0015 36.0403C81.0015 36.6974 81.5342 37.2302 82.1897 37.2302C82.8468 37.2302 83.3796 36.6974 83.3796 36.0403Z" fill="white"/>
<path d="M82.1897 37.8117C81.2132 37.8117 80.4199 37.0167 80.4199 36.0403C80.4199 35.0638 81.2132 34.2705 82.1897 34.2705C83.1661 34.2705 83.9611 35.0638 83.9611 36.0403C83.9611 37.0167 83.1661 37.8117 82.1897 37.8117ZM82.1897 35.4319C81.8535 35.4319 81.5813 35.7041 81.5813 36.0403C81.5813 36.3764 81.8535 36.6487 82.1897 36.6487C82.5258 36.6487 82.7981 36.3764 82.7981 36.0403C82.7981 35.7041 82.5258 35.4319 82.1897 35.4319Z" fill="#1A3967"/>
<path d="M80.4774 49.158C80.1295 50.9731 79.1177 52.5176 78.4152 54.1865C78.3211 54.4101 78.3144 54.5613 78.4555 54.7731C80.9043 58.4571 79.7379 63.4823 75.9211 65.7126C75.7833 65.7933 75.6169 65.8655 75.4623 65.8672C74.3228 65.8807 73.1833 65.8773 72.0438 65.8723C71.7077 65.8706 71.4942 65.6622 71.5009 65.3664C71.5076 65.084 71.7144 64.8958 72.0354 64.8807C72.1077 64.8773 72.1799 64.8807 72.2522 64.8807C73.2152 64.8807 74.1782 64.8857 75.1413 64.8756C75.2875 64.8739 75.4522 64.8353 75.5749 64.7596C77.9161 63.3092 79.1295 60.4857 78.6001 57.7311C78.0841 55.0437 75.9144 52.8823 73.2337 52.3832C70.0724 51.7949 67.0589 53.3731 65.753 56.3008C65.7446 56.3193 65.7396 56.3395 65.7295 56.358C65.5547 56.7428 65.3026 56.8857 65.0152 56.7596C64.7177 56.6302 64.6303 56.3462 64.8169 55.9714C65.0371 55.5277 65.2757 55.0907 65.5345 54.6689C65.6387 54.4991 65.6572 54.3781 65.5715 54.1949C65.0404 53.0739 64.511 51.9512 64.0068 50.8185C62.585 47.6286 64.3732 44.0958 67.7833 43.3563C68.1446 43.2773 68.5228 43.2538 68.8925 43.2521C70.953 43.242 73.0152 43.2454 75.0757 43.2487C77.8169 43.2538 80.0001 45.1294 80.4219 47.8336C80.4337 47.9042 80.4589 47.9714 80.4774 48.0403C80.4774 48.4117 80.4774 48.7849 80.4774 49.158ZM75.753 52.2386C75.8102 52.1244 75.8572 52.0353 75.9009 51.9445C76.2623 51.1664 76.627 50.3899 76.985 49.6101C77.7211 48.0084 76.7446 46.4823 74.9833 46.4756C74.7866 46.4739 74.5866 46.484 74.3967 46.4454C74.1446 46.3933 74.0068 46.2084 74.0186 45.9496C74.0303 45.7059 74.1682 45.5193 74.4119 45.4991C75.3732 45.4185 76.2925 45.5193 77.0791 46.163C78.1934 47.0756 78.5463 48.5546 77.9446 49.8924C77.5076 50.8622 77.0556 51.8235 76.6102 52.7882C76.9362 53.0739 77.2438 53.3445 77.5598 53.6202C77.585 53.5865 77.6085 53.5681 77.6203 53.5428C78.1329 52.4353 78.6623 51.3361 79.1514 50.2185C79.5043 49.4117 79.5749 48.5596 79.3833 47.6941C78.9329 45.6554 77.2505 44.2655 75.1665 44.247C73.0539 44.2269 70.9413 44.242 68.8287 44.2437C68.632 44.2437 68.4337 44.2487 68.2404 44.2823C65.264 44.7798 63.6925 47.7445 64.948 50.4958C65.3816 51.4454 65.8253 52.3916 66.264 53.3378C66.3009 53.4168 66.348 53.4924 66.3934 53.5731C66.7211 53.2891 67.032 53.0185 67.353 52.7412C66.9211 51.8067 66.4858 50.8823 66.0623 49.9529C65.0774 47.7849 66.5413 45.4941 68.9177 45.4857C70.1295 45.4807 71.3413 45.484 72.553 45.4857C72.7077 45.4857 72.864 45.4807 73.0186 45.4891C73.306 45.5042 73.4976 45.684 73.5144 45.9428C73.5329 46.2151 73.348 46.4302 73.0555 46.4723C72.9631 46.4857 72.869 46.4807 72.7766 46.4807C71.5026 46.4807 70.2287 46.4773 68.9547 46.4823C67.2539 46.4891 66.2774 48.0185 66.9833 49.5697C67.3513 50.3798 67.7295 51.1832 68.1043 51.9899C68.1379 52.0622 68.1799 52.1294 68.2236 52.2101C69.4152 51.5815 70.6606 51.2571 71.9917 51.2639C73.3245 51.2639 74.5665 51.6 75.753 52.2386Z" fill="#1A3967"/>
<path d="M57.9477 65.0201C58.0636 64.4134 58.1998 63.6319 58.3695 62.8571C58.4115 62.6655 58.3846 62.5882 58.2149 62.4991C57.5645 62.158 56.9359 61.7731 56.2771 61.4538C55.6552 61.1529 55.4149 60.6806 55.4905 60.0218C55.5729 59.3042 55.8956 58.7227 56.5107 58.3294C56.8771 58.0958 57.2519 58.0655 57.6519 58.2941C58.3796 58.7092 59.1258 59.0924 59.8519 59.5075C60.0485 59.6201 60.1477 59.5849 60.2888 59.4269C61.1729 58.4454 62.2115 57.7042 63.5225 57.4017C64.3577 57.2084 65.1661 57.2773 65.946 57.6386C66.8182 58.0437 67.6804 58.4722 68.5661 58.8454C70.0468 59.4672 70.8065 60.6336 71.0821 62.1462C71.6687 65.3664 69.9561 69.0605 67.1174 70.6975C65.8048 71.4538 64.4384 71.6151 63.0283 70.9092C62.2519 70.521 61.4653 70.1479 60.6636 69.8185C59.1527 69.1966 58.4031 68.0117 58.109 66.4773C58.03 66.0588 58.0132 65.6319 57.9477 65.0201ZM70.2199 63.7815C70.2233 62.526 70.0519 61.7496 69.7174 61.126C69.1779 60.1193 68.1981 59.563 67.151 59.6756C66.5023 59.7445 65.8922 59.9361 65.3611 60.3193C62.83 62.1412 61.7006 64.6084 62.0821 67.7059C62.3594 69.9428 64.5157 71.1143 66.5712 69.8722C68.9796 68.4134 70.0418 66.1462 70.2199 63.7815ZM61.4132 69.0269C60.7006 66.968 60.9107 64.9781 61.8098 63.0353C62.709 61.0941 64.0838 59.6386 66.1157 58.8487C65.0065 58.1378 63.8888 58.1159 62.7493 58.7059C61.6401 59.279 60.8115 60.1496 60.1813 61.2067C59.2149 62.8269 58.7208 64.5596 59.0989 66.4571C59.3594 67.7546 60.1073 68.642 61.4132 69.0269ZM59.4754 60.4269C58.793 60.0538 58.1309 59.6924 57.4687 59.3311C57.0451 59.0991 56.8687 59.1462 56.6535 59.5899C56.5661 59.7714 56.4989 59.9798 56.4939 60.1781C56.4905 60.2958 56.593 60.4655 56.6989 60.5311C57.1124 60.7848 57.546 61.005 57.9729 61.2386C58.2418 61.3849 58.5107 61.5311 58.7796 61.679C59.0199 61.247 59.2384 60.8504 59.4754 60.4269Z" fill="#1A3967"/>
<path d="M56.8354 53.7462C55.6438 53.0639 54.4522 52.9311 53.2925 53.6639C50.869 55.1966 49.6992 57.4504 49.6639 60.2958C49.6572 60.7866 49.7295 61.2941 49.8673 61.7647C50.195 62.8807 50.9934 63.5597 52.0404 63.9193C51.9177 63.3109 51.79 62.6908 51.6707 62.0706C51.6471 61.9496 51.6455 61.8235 51.6471 61.6992C51.6505 61.3529 51.8354 61.1412 52.1312 61.1345C52.432 61.126 52.5917 61.3277 52.6455 61.6723C52.7379 62.2605 52.79 62.874 52.9984 63.4252C53.6118 65.0571 55.1665 65.6773 56.7715 64.9899C56.8102 64.9731 56.8471 64.9546 56.8858 64.9395C57.1833 64.8252 57.4488 64.9177 57.5665 65.1765C57.6841 65.4353 57.5816 65.716 57.2925 65.842C56.2354 66.2992 55.1564 66.4353 54.0724 65.9597C53.0118 65.4941 51.9564 65.0168 50.9194 64.5042C49.6421 63.874 49.0303 62.7429 48.7866 61.4034C48.1782 58.0672 50.0135 54.2824 53.0018 52.6857C54.1866 52.0521 55.4203 52.0118 56.6522 52.5529C57.5984 52.9681 58.5446 53.3899 59.4673 53.8555C60.869 54.563 61.6303 55.7345 61.8152 57.2857C61.8522 57.5933 61.6623 57.8336 61.385 57.8639C61.0942 57.8958 60.8707 57.721 60.8354 57.405C60.7581 56.7193 60.5278 56.0992 60.0808 55.5681C59.2841 54.6185 58.2404 54.3227 57.0337 54.7227C55.8892 55.1025 55.0303 55.8639 54.311 56.8C53.6152 57.7059 53.1362 58.7193 52.8656 59.8303C52.8455 59.9109 52.8303 59.9916 52.8051 60.0706C52.7144 60.3698 52.4639 60.5277 52.1934 60.4605C51.9228 60.3916 51.7665 60.1345 51.8404 59.8286C52.506 57.0672 53.9547 54.9328 56.6791 53.8303C56.7211 53.8067 56.7631 53.7832 56.8354 53.7462Z" fill="#1A3967"/>
<path d="M71.9884 55.3815C73.906 55.4386 75.4993 56.9512 75.5699 58.81C75.6472 60.8151 74.2304 62.4588 72.2758 62.6302C72.1531 62.6403 72.022 62.6504 71.906 62.6168C71.6606 62.5462 71.5194 62.363 71.543 62.1058C71.5682 61.8369 71.7379 61.689 72.0102 61.647C72.2942 61.6033 72.5884 61.5764 72.8573 61.4823C73.985 61.0857 74.6539 60.0184 74.5716 58.7848C74.4976 57.6689 73.6354 56.7109 72.4825 56.4605C71.3715 56.2184 70.2035 56.7697 69.6539 57.7932C69.6203 57.8571 69.59 57.9243 69.5547 57.9865C69.4001 58.2537 69.1531 58.3479 68.9026 58.2319C68.6421 58.1126 68.5379 57.8386 68.6674 57.5546C69.1262 56.5462 69.8926 55.8756 70.9547 55.563C71.2892 55.4672 71.6438 55.4403 71.9884 55.3815Z" fill="#1A3967"/>
</svg>
