<svg width="16" height="20" viewBox="0 0 16 20" fill="none" xmlns="http://www.w3.org/2000/svg">
<path d="M15.3128 15.6624C10.4937 18.4743 6.5965 17.379 3.7342 12.3927C2.65074 10.3655 2.31114 7.97868 3.41078 5.98418C4.5751 3.87525 5.8688 2.53468 6.98461 1.68457C7.64762 1.17777 7.3242 0.115131 6.49947 0.0660863C6.4833 0.0660863 6.4833 0.0660863 6.46713 0.0660863C6.28925 0.049738 6.09519 0.0987822 5.94965 0.196872C3.97677 1.43935 2.45668 3.15592 1.59961 5.19946C0.483803 7.88059 0.629342 10.7742 2.02006 13.3573L2.03623 13.3736C4.5751 17.804 7.63145 19.1773 10.4291 19.1773C11.8683 19.1773 13.2267 18.8176 14.4072 18.3435L15.3128 15.6624Z" fill="#1A3967"/>
</svg>
