<svg width="105" height="95" viewBox="0 0 105 95" fill="none" xmlns="http://www.w3.org/2000/svg">
<circle cx="45" cy="45" r="45" fill="#EAF2F9"/>
<path d="M99.8525 55.0448V55.0208C99.8525 54.352 100.395 53.8096 101.064 53.8096H101.777C102.446 53.8096 102.989 54.352 102.989 55.0208V55.0448C102.989 55.7136 102.446 56.256 101.777 56.256H101.064C100.393 56.256 99.8525 55.7136 99.8525 55.0448Z" fill="black"/>
<path d="M28.7217 50.1648V50.1408C28.7217 49.472 29.2641 48.9296 29.9329 48.9296H30.3713C31.0401 48.9296 31.5825 49.472 31.5825 50.1408V50.1648C31.5825 50.8336 31.0401 51.376 30.3713 51.376H29.9329C29.2625 51.376 28.7217 50.8336 28.7217 50.1648Z" fill="#EAF2F9"/>
<path d="M26.9199 59.9631V59.9391C26.9199 59.2703 27.4623 58.7279 28.1311 58.7279H30.8735C31.5423 58.7279 32.0847 59.2703 32.0847 59.9391V59.9631C32.0847 60.6319 31.5423 61.1743 30.8735 61.1743H28.1311C27.4623 61.1727 26.9199 60.6319 26.9199 59.9631Z" fill="#EAF2F9"/>
<path d="M85.6608 44.0239H93.2928C93.944 44.0239 94.4736 44.5519 94.4736 45.2047V45.2911C94.4736 45.9423 93.9456 46.4719 93.2928 46.4719H89.2624C88.6112 46.4719 88.0816 46.9999 88.0816 47.6527V47.7391C88.0816 48.3903 88.6096 48.9199 89.2624 48.9199H97.4288C98.08 48.9199 98.6096 49.4479 98.6096 50.1007V50.1871C98.6096 50.8383 98.0816 51.3679 97.4288 51.3679H91.7936C91.1424 51.3679 90.6128 51.8959 90.6128 52.5487V52.6351C90.6128 53.2863 91.1408 53.8159 91.7936 53.8159H97.4592C98.1104 53.8159 98.64 54.3439 98.64 54.9967V55.0831C98.64 55.7343 98.112 56.2639 97.4592 56.2639H93.2672C92.616 56.2639 92.0864 56.7919 92.0864 57.4447V57.5311C92.0864 58.1823 92.6144 58.7119 93.2672 58.7119H99.1872C99.8384 58.7119 100.368 59.2399 100.368 59.8927V59.9791C100.368 60.6303 99.84 61.1599 99.1872 61.1599H89.5184C88.8672 61.1599 88.3376 61.6879 88.3376 62.3407V62.4271C88.3376 63.0783 88.8656 63.6079 89.5184 63.6079H93.0112C93.6624 63.6079 94.192 64.1359 94.192 64.7887V64.8751C94.192 65.5263 93.664 66.0559 93.0112 66.0559H83.8544C83.2032 66.0559 82.6736 66.5839 82.6736 67.2367V67.3231C82.6736 67.9743 83.2016 68.5039 83.8544 68.5039H86.7968C87.448 68.5039 87.9776 69.0319 87.9776 69.6847V69.7711C87.9776 70.4223 87.4496 70.9519 86.7968 70.9519H80.5264C79.8752 70.9519 79.3456 71.4799 79.3456 72.1327V72.2191C79.3456 72.8703 79.8736 73.3999 80.5264 73.3999H88.5248C89.176 73.3999 89.7056 73.9279 89.7056 74.5807V74.6671C89.7056 75.3183 89.1776 75.8479 88.5248 75.8479H70.7968C70.1456 75.8479 69.616 76.3759 69.616 77.0287V77.1151C69.616 77.7663 70.144 78.2959 70.7968 78.2959H80.9856C81.6368 78.2959 82.1664 78.8239 82.1664 79.4767V79.5631C82.1664 80.2143 81.6384 80.7439 80.9856 80.7439H62.3488C61.6976 80.7439 61.168 81.2719 61.168 81.9247V82.0111C61.168 82.6623 61.696 83.1919 62.3488 83.1919H63.536C64.1872 83.1919 64.7168 83.7199 64.7168 84.3727V84.4591C64.7168 85.1103 64.1888 85.6399 63.536 85.6399H57.1456C56.4944 85.6399 55.9648 85.1119 55.9648 84.4591V84.3727C55.9648 83.7215 56.4928 83.1919 57.1456 83.1919H57.1696C57.8208 83.1919 58.3504 82.6639 58.3504 82.0111V81.9247C58.3504 81.2735 57.8224 80.7439 57.1696 80.7439H48.9728C48.3216 80.7439 47.792 80.2159 47.792 79.5631V79.4767C47.792 78.8255 48.32 78.2959 48.9728 78.2959H51.6048C52.256 78.2959 52.7856 77.7679 52.7856 77.1151V77.0287C52.7856 76.3775 52.2576 75.8479 51.6048 75.8479H40.2704C39.6192 75.8479 39.0896 75.3199 39.0896 74.6671V74.5807C39.0896 73.9295 39.6176 73.3999 40.2704 73.3999H49.2432C49.8944 73.3999 50.424 72.8719 50.424 72.2191V72.1327C50.424 71.4815 49.896 70.9519 49.2432 70.9519H47.2992C46.648 70.9519 46.1184 70.4239 46.1184 69.7711V69.6847C46.1184 69.0335 46.6464 68.5039 47.2992 68.5039H49.8608C50.512 68.5039 51.0416 67.9759 51.0416 67.3231V67.2367C51.0416 66.5855 50.5136 66.0559 49.8608 66.0559H33.0848C32.4336 66.0559 31.904 65.5279 31.904 64.8751V64.7887C31.904 64.1375 32.432 63.6079 33.0848 63.6079H43.0992C43.7504 63.6079 44.28 63.0799 44.28 62.4271V62.3407C44.28 61.6895 43.752 61.1599 43.0992 61.1599H34.7136C34.0624 61.1599 33.5328 60.6319 33.5328 59.9791V59.8927C33.5328 59.2415 34.0608 58.7119 34.7136 58.7119H37.5984C38.2496 58.7119 38.7792 58.1839 38.7792 57.5311V57.4447C38.7792 56.7935 38.2512 56.2639 37.5984 56.2639H29.152C28.5008 56.2639 27.9712 55.7359 27.9712 55.0831V54.9967C27.9712 54.3455 28.4992 53.8159 29.152 53.8159H34.3936C35.0448 53.8159 35.5744 53.2879 35.5744 52.6351V52.5487C35.5744 51.8975 35.0464 51.3679 34.3936 51.3679H33.7376C33.0864 51.3679 32.5568 50.8399 32.5568 50.1871V50.1007C32.5568 49.4495 33.0848 48.9199 33.7376 48.9199H39.6896C40.3408 48.9199 40.8704 48.3919 40.8704 47.7391V47.6527C40.8704 47.0015 40.3424 46.4719 39.6896 46.4719H35.4464C34.7952 46.4719 34.2656 45.9439 34.2656 45.2911V45.2047C34.2656 44.5535 34.7936 44.0239 35.4464 44.0239H42.8688C43.52 44.0239 44.0496 43.4959 44.0496 42.8431V42.7567C44.0496 42.1055 43.5216 41.5759 42.8688 41.5759H39.5488C38.8976 41.5759 38.368 41.0479 38.368 40.3951V40.3087C38.368 39.6575 38.896 39.1279 39.5488 39.1279H44.1344C44.7856 39.1279 45.3152 38.5999 45.3152 37.9471V37.8607C45.3152 37.2095 44.7872 36.6799 44.1344 36.6799H42.8976C42.2464 36.6799 41.7168 36.1519 41.7168 35.4991V35.4127C41.7168 34.7615 42.2448 34.2319 42.8976 34.2319H49.8592C50.5104 34.2319 51.04 33.7039 51.04 33.0511V32.9647C51.04 32.3135 50.512 31.7839 49.8592 31.7839H48.1936C47.5424 31.7839 47.0128 31.2559 47.0128 30.6031V30.5167C47.0128 29.8655 47.5408 29.3359 48.1936 29.3359H64.5792C65.2304 29.3359 65.76 28.8079 65.76 28.1551V28.0687C65.76 27.4175 65.232 26.8879 64.5792 26.8879H62.0048C61.3536 26.8879 60.824 26.3599 60.824 25.7071V25.6207C60.824 24.9695 61.352 24.4399 62.0048 24.4399H69.5264C70.1776 24.4399 70.7072 24.9679 70.7072 25.6207V25.7071C70.7072 26.3583 70.1792 26.8879 69.5264 26.8879H69.4192C68.768 26.8879 68.2384 27.4159 68.2384 28.0687V28.1551C68.2384 28.8063 68.7664 29.3359 69.4192 29.3359H73.408C74.0592 29.3359 74.5888 29.8639 74.5888 30.5167V30.6031C74.5888 31.2543 74.0608 31.7839 73.408 31.7839H72.3728C71.7216 31.7839 71.192 32.3119 71.192 32.9647V33.0511C71.192 33.7023 71.72 34.2319 72.3728 34.2319H84.3376C84.9888 34.2319 85.5184 34.7599 85.5184 35.4127V35.4991C85.5184 36.1503 84.9904 36.6799 84.3376 36.6799H79.4064C78.7552 36.6799 78.2256 37.2079 78.2256 37.8607V37.9471C78.2256 38.5983 78.7536 39.1279 79.4064 39.1279H90.9104C91.5616 39.1279 92.0912 39.6559 92.0912 40.3087V40.3951C92.0912 41.0463 91.5632 41.5759 90.9104 41.5759H85.664C85.0128 41.5759 84.4832 42.1039 84.4832 42.7567V42.8431C84.4816 43.4959 85.0096 44.0239 85.6608 44.0239Z" fill="#EAF2F9"/>
<path d="M76.6497 29.3535H77.2225C77.8913 29.3535 78.4337 29.8959 78.4337 30.5647V30.5887C78.4337 31.2575 77.8913 31.7999 77.2225 31.7999H76.6497C75.9809 31.7999 75.4385 31.2575 75.4385 30.5887V30.5647C75.4385 29.8959 75.9809 29.3535 76.6497 29.3535Z" fill="#EAF2F9"/>
<path d="M36.9885 68.5055H42.5389C43.2077 68.5055 43.7501 69.0479 43.7501 69.7167V69.7407C43.7501 70.4095 43.2077 70.9519 42.5389 70.9519H36.9885C36.3197 70.9519 35.7773 70.4095 35.7773 69.7407V69.7167C35.7773 69.0479 36.3197 68.5055 36.9885 68.5055Z" fill="#EAF2F9"/>
<path d="M37.9793 34.2383H39.0881C39.7569 34.2383 40.2993 34.7807 40.2993 35.4495V35.4735C40.2993 36.1423 39.7569 36.6847 39.0881 36.6847H37.9793C37.3105 36.6847 36.7681 36.1423 36.7681 35.4735V35.4495C36.7697 34.7807 37.3105 34.2383 37.9793 34.2383Z" fill="#EAF2F9"/>
<path d="M55.8897 82.0511H41.7921C40.7361 82.0511 39.8721 81.1871 39.8721 80.1311V70.1871C39.8721 69.1311 40.7361 68.2671 41.7921 68.2671H55.8897C56.9457 68.2671 57.8097 69.1311 57.8097 70.1871V80.1311C57.8097 81.1871 56.9457 82.0511 55.8897 82.0511Z" fill="white"/>
<path d="M40.4593 82.8943C39.3713 82.4799 38.9953 81.6751 39.0081 80.5375C39.0465 77.1711 39.0209 73.8031 39.0209 70.4367C39.0209 68.3407 39.4257 67.8975 41.5521 67.7375C41.5601 67.5455 41.5713 67.3439 41.5777 67.1423C41.6193 65.7871 41.5793 64.4239 41.7249 63.0815C41.8849 61.6063 42.6353 60.3647 43.6209 59.2607C43.8065 59.0527 43.9441 58.7167 43.9457 58.4399C43.9633 51.9343 43.9601 45.4303 43.9601 38.9247C43.9601 37.6591 44.4161 37.1951 45.6657 37.1951C47.5873 37.1935 49.5089 37.1935 51.4305 37.1951C52.0945 37.1967 52.4561 37.4831 52.4529 37.9919C52.4497 38.4975 52.0865 38.7791 51.4209 38.7807C49.6753 38.7823 47.9313 38.7807 46.1857 38.7807C45.9953 38.7807 45.8049 38.7807 45.5809 38.7807C45.5809 45.1199 45.5809 51.4175 45.5809 57.6159C46.5713 57.3967 47.5489 57.0655 48.5473 56.9823C51.0081 56.7759 53.0673 57.6831 54.7025 59.5263C54.9425 59.7967 55.1793 59.8783 55.5185 59.8767C58.2513 59.8671 60.9825 59.8703 63.7153 59.8735C63.9425 59.8735 64.1793 59.8767 64.3953 59.9375C64.7857 60.0479 64.9585 60.3471 64.9265 60.7455C64.8961 61.1215 64.6833 61.3679 64.3073 61.4319C64.1185 61.4639 63.9217 61.4575 63.7281 61.4575C61.3665 61.4591 59.0033 61.4591 56.6417 61.4591C56.4497 61.4591 56.2561 61.4591 56.0273 61.4591C56.1937 62.1903 56.3377 62.8863 56.5265 63.5711C56.5505 63.6575 56.8113 63.7247 56.9617 63.7247C58.7249 63.7359 60.4865 63.7311 62.2497 63.7311C65.3345 63.7311 68.4193 63.7311 71.5041 63.7327C71.6977 63.7327 71.9425 63.6735 72.0737 63.7663C72.3233 63.9439 72.6513 64.1967 72.6769 64.4463C72.7009 64.6943 72.4385 65.0255 72.2161 65.2239C72.0785 65.3471 71.7809 65.3151 71.5553 65.3151C66.7777 65.3199 62.0017 65.3183 57.2241 65.3183C57.0161 65.3183 56.8097 65.3183 56.5745 65.3183C56.5745 66.0831 56.5745 66.7951 56.5745 67.5663C56.8001 67.5663 57.0065 67.5663 57.2129 67.5663C61.9729 67.5663 66.7313 67.5663 71.4913 67.5663C71.6497 67.5663 71.8097 67.5551 71.9665 67.5727C72.4193 67.6223 72.7281 67.9567 72.7217 68.3743C72.7153 68.7935 72.3985 69.1103 71.9409 69.1455C71.7825 69.1583 71.6241 69.1519 71.4657 69.1519C67.5697 69.1519 63.6737 69.1519 59.7793 69.1519C59.5697 69.1519 59.3601 69.1519 59.0913 69.1519C59.0913 70.0575 59.1073 70.9311 59.0817 71.8031C59.0737 72.0511 59.0193 72.3823 58.8561 72.5183C58.6593 72.6799 58.2577 72.8031 58.0625 72.7071C57.8161 72.5855 57.5633 72.2383 57.5329 71.9647C57.4577 71.2863 57.4897 70.5919 57.5121 69.9055C57.5265 69.4991 57.3969 69.3487 56.9713 69.3487C51.7009 69.3599 46.4305 69.3599 41.1601 69.3487C40.7361 69.3471 40.6097 69.5039 40.6097 69.9055C40.6177 73.5199 40.6193 77.1327 40.6081 80.7471C40.6065 81.1887 40.7697 81.3183 41.2017 81.3167C46.4369 81.3055 51.6721 81.3039 56.9073 81.3183C57.3681 81.3199 57.5217 81.1839 57.5137 80.7167C57.4897 79.0959 57.4993 77.4735 57.5073 75.8511C57.5105 75.2287 57.8769 74.8607 58.4017 74.9343C58.8529 74.9983 59.0785 75.2831 59.0865 75.7311C59.0945 76.1871 59.0881 76.6447 59.0881 77.1423C66.0001 77.1423 72.8801 77.1423 79.8033 77.1423C79.8033 70.7823 79.8033 64.4143 79.8033 57.9359C78.6881 58.7487 77.7665 58.2047 76.8881 57.5647C75.2945 56.4047 73.7281 55.2079 72.1361 54.0479C71.9297 53.8975 71.6337 53.7999 71.3793 53.7983C68.1185 53.7823 64.8577 53.7887 61.5969 53.7839C61.3713 53.7839 61.1329 53.7759 60.9217 53.7055C60.5377 53.5775 60.3793 53.2703 60.4289 52.8751C60.4753 52.4975 60.7025 52.2719 61.0785 52.2159C61.2513 52.1903 61.4305 52.2015 61.6065 52.2015C64.2865 52.2015 66.9649 52.2015 69.6449 52.2015C69.8321 52.2015 70.0193 52.2015 70.2721 52.2015C69.7521 51.4447 69.2945 50.7423 68.7905 50.0751C68.6977 49.9519 68.4129 49.9343 68.2177 49.9343C63.4753 49.9263 58.7345 49.9295 53.9921 49.9279C53.7809 49.9279 53.5665 49.9343 53.3585 49.9039C52.9553 49.8463 52.7313 49.5919 52.7073 49.1919C52.6817 48.7663 52.8913 48.4767 53.3089 48.3823C53.5121 48.3359 53.7281 48.3439 53.9393 48.3439C58.3633 48.3423 62.7889 48.3423 67.2129 48.3423C67.4177 48.3423 67.6241 48.3423 67.8641 48.3423C67.6225 47.6095 67.4225 46.9359 67.1649 46.2879C67.1185 46.1711 66.8273 46.0943 66.6497 46.0943C62.9649 46.0831 59.2817 46.0863 55.5969 46.0863C54.9441 46.0863 54.2929 46.0911 53.6401 46.0847C53.0513 46.0799 52.7137 45.7951 52.7025 45.3135C52.6913 44.8111 53.0401 44.5023 53.6545 44.5007C57.8145 44.4975 61.9745 44.4991 66.1345 44.4991C66.3425 44.4991 66.5505 44.4991 66.6849 44.4991C66.6097 42.5839 66.5361 40.7199 66.4609 38.7823C66.2817 38.7823 66.0769 38.7823 65.8721 38.7823C62.5057 38.7823 59.1377 38.7823 55.7713 38.7823C55.5953 38.7823 55.4129 38.8015 55.2449 38.7631C54.8353 38.6719 54.5953 38.4063 54.6033 37.9775C54.6113 37.5503 54.8529 37.2895 55.2689 37.2127C55.4401 37.1807 55.6209 37.1967 55.7969 37.1967C59.1633 37.1967 62.5313 37.1967 65.8977 37.1967C66.0865 37.1967 66.2753 37.1967 66.5217 37.1967C66.5217 36.7215 66.5233 36.3023 66.5217 35.8847C66.5201 35.0063 66.9041 34.3855 67.7025 33.9887C71.0433 32.3295 74.3793 30.6575 77.7137 28.9839C78.3457 28.6671 78.9601 28.6687 79.5873 28.9823C82.9249 30.6543 86.2593 32.3311 89.6049 33.9871C90.3041 34.3327 90.6449 34.8991 90.8161 35.6143C90.8161 37.5887 90.8161 39.5631 90.8161 41.5375C90.7825 41.9215 90.7409 42.3055 90.7153 42.6895C90.4929 45.9887 89.4705 48.9919 87.4193 51.6159C85.8721 53.5951 83.9665 55.1775 81.8961 56.5727C81.5473 56.8079 81.4273 57.0591 81.4273 57.4735C81.4401 63.9935 81.4369 70.5151 81.4353 77.0351C81.4353 78.3519 81.0129 78.7711 79.6913 78.7711C73.0481 78.7711 66.4049 78.7711 59.7617 78.7711C59.5553 78.7711 59.3505 78.7711 59.0945 78.7711C59.0945 79.3887 59.0545 79.9519 59.1025 80.5071C59.2017 81.6479 58.7729 82.4495 57.7089 82.8959C51.9537 82.8943 46.2065 82.8943 40.4593 82.8943ZM89.1777 39.8223C89.1777 38.3039 89.1681 37.1759 89.1841 36.0495C89.1889 35.7135 89.0961 35.5039 88.7745 35.3439C85.5121 33.7263 82.2593 32.0895 78.9953 30.4767C78.8097 30.3855 78.5025 30.3759 78.3201 30.4655C75.0385 32.0863 71.7665 33.7231 68.5025 35.3791C68.3185 35.4735 68.1233 35.7631 68.1201 35.9647C68.0961 37.8847 68.0865 39.8063 68.1217 41.7263C68.1841 45.2367 69.2161 48.4063 71.5169 51.1151C73.4593 53.4031 75.8881 55.0847 78.4193 56.6351C78.5553 56.7183 78.8673 56.6511 79.0241 56.5455C80.3777 55.6271 81.7601 54.7407 83.0465 53.7327C85.6545 51.6895 87.6321 49.1743 88.5633 45.9279C89.1697 43.7999 89.2065 41.6191 89.1777 39.8223ZM44.7521 67.7503C44.7521 67.5135 44.7505 67.3231 44.7521 67.1327C44.7569 66.1455 44.7265 65.1567 44.7761 64.1711C44.8833 62.0015 46.5969 60.2687 48.7217 60.1295C50.9617 59.9839 52.9185 61.4159 53.2577 63.6111C53.4353 64.7663 53.3409 65.9647 53.3665 67.1439C53.3713 67.3455 53.3665 67.5487 53.3665 67.7359C53.9409 67.7359 54.4273 67.7359 54.9489 67.7359C54.9489 66.5615 54.9665 65.4191 54.9457 64.2767C54.8897 61.3647 52.5969 58.8415 49.7761 58.5647C46.6673 58.2591 43.8641 60.1855 43.3361 63.1743C43.0929 64.5471 43.2097 65.9823 43.1681 67.3887C43.1649 67.5039 43.1953 67.6191 43.2129 67.7471C43.7217 67.7503 44.1937 67.7503 44.7521 67.7503ZM51.7745 67.7439C51.7745 66.5311 51.8081 65.3695 51.7649 64.2095C51.7153 62.8831 50.6081 61.8063 49.2753 61.7119C47.8993 61.6143 46.5633 62.5151 46.4257 63.8383C46.2929 65.1199 46.3969 66.4255 46.3969 67.7439C48.1761 67.7439 49.9457 67.7439 51.7745 67.7439Z" fill="#1A3967"/>
<path d="M62.6754 57.6175C59.733 57.6175 56.7922 57.6175 53.8498 57.6175C53.6914 57.6175 53.5298 57.6319 53.3746 57.6047C52.9602 57.5311 52.7138 57.2815 52.6994 56.8511C52.685 56.4191 52.9218 56.1551 53.3266 56.0543C53.493 56.0127 53.677 56.0303 53.853 56.0303C59.7538 56.0287 65.6546 56.0287 71.5554 56.0303C71.7314 56.0303 71.9138 56.0143 72.0818 56.0559C72.4866 56.1567 72.7282 56.4271 72.7106 56.8527C72.6946 57.2751 72.4434 57.5311 72.0274 57.6031C71.8738 57.6303 71.7106 57.6159 71.5522 57.6159C68.5938 57.6175 65.6338 57.6159 62.6754 57.6175Z" fill="#1A3967"/>
<path d="M69.4737 61.4559C68.6993 61.4559 67.9249 61.4623 67.1521 61.4543C66.5569 61.4479 66.2321 61.1631 66.2305 60.6751C66.2289 60.1919 66.5585 59.8799 67.1441 59.8751C68.6913 59.8623 70.2401 59.8623 71.7873 59.8751C72.3713 59.8799 72.7137 60.1935 72.7169 60.6671C72.7201 61.1423 72.3761 61.4463 71.7953 61.4543C71.0209 61.4639 70.2465 61.4559 69.4737 61.4559Z" fill="#1A3967"/>
<path d="M55.749 52.1999C56.469 52.1999 57.1906 52.1935 57.9106 52.2015C58.4674 52.2095 58.7842 52.4895 58.797 52.9599C58.8098 53.4399 58.4722 53.7759 57.9042 53.7807C56.4642 53.7935 55.0226 53.7935 53.5826 53.7807C53.0146 53.7759 52.6818 53.4399 52.6994 52.9535C52.7154 52.4815 53.0274 52.2095 53.5906 52.2015C54.3074 52.1919 55.029 52.1999 55.749 52.1999Z" fill="#1A3967"/>
<path d="M70.5762 42.4495C70.5666 38.1167 73.6322 34.7151 77.9154 34.2879C81.7778 33.9023 85.4882 36.4511 86.4242 40.5199C86.4562 40.6559 86.4818 40.7967 86.4866 40.9375C86.5026 41.3871 86.301 41.6911 85.8466 41.7647C85.4018 41.8367 85.0962 41.6367 84.957 41.2047C84.797 40.7023 84.685 40.1807 84.4802 39.6991C83.317 36.9551 80.365 35.3999 77.3922 35.9439C74.501 36.4719 72.285 39.0335 72.1682 41.9839C72.0434 45.1471 74.1378 47.8735 77.2322 48.5743C80.2322 49.2527 83.3394 47.6159 84.5522 44.7151C84.6002 44.6015 84.6338 44.4815 84.693 44.3743C84.9106 43.9775 85.2514 43.8335 85.6722 43.9775C86.1074 44.1263 86.277 44.4863 86.149 44.9071C86.0178 45.3407 85.8258 45.7647 85.6066 46.1631C83.9442 49.1711 80.4946 50.8047 77.1554 50.1823C73.7154 49.5407 71.069 46.7519 70.6258 43.2959C70.5842 42.9631 70.5858 42.6271 70.5762 42.4495Z" fill="#1A3967"/>
<path d="M78.2068 43.2671C79.2804 42.1855 80.274 41.1855 81.2676 40.1855C81.5748 39.8767 81.922 39.7663 82.3156 39.9999C82.6452 40.1951 82.7476 40.5119 82.6548 40.8671C82.6132 41.0271 82.5028 41.1871 82.3844 41.3071C81.218 42.4847 80.05 43.6591 78.8692 44.8223C78.4212 45.2655 78.0244 45.2639 77.578 44.8287C76.834 44.1023 76.0996 43.3647 75.3716 42.6223C74.9652 42.2063 74.946 41.7535 75.2948 41.4127C75.6324 41.0815 76.0964 41.1119 76.5076 41.5199C77.066 42.0799 77.61 42.6527 78.2068 43.2671Z" fill="#1A3967"/>
</svg>
