<svg width="22" height="22" viewBox="0 0 22 22" fill="none" xmlns="http://www.w3.org/2000/svg">
<path fill-rule="evenodd" clip-rule="evenodd" d="M13.5 0C12.1193 0 11 1.11929 11 2.5V7.5C11 8.88071 12.1193 10 13.5 10C14.8807 10 16 8.88071 16 7.5V2.5C16 1.11929 14.8807 0 13.5 0ZM13 2.5C13 2.22386 13.2239 2 13.5 2C13.7761 2 14 2.22386 14 2.5V7.5C14 7.77614 13.7761 8 13.5 8C13.2239 8 13 7.77614 13 7.5V2.5Z" fill="white"/>
<path fill-rule="evenodd" clip-rule="evenodd" d="M19.9877 5.04804C19.5028 4.95157 19.0001 5.00108 18.5433 5.1903C18.0865 5.37952 17.696 5.69995 17.4213 6.11108C17.1466 6.5222 17 7.00555 17 7.5V9C17 9.55229 17.4477 10 18 10H19.5C19.9945 10 20.4778 9.85338 20.8889 9.57868C21.3 9.30397 21.6205 8.91352 21.8097 8.45671C21.9989 7.9999 22.0484 7.49723 21.952 7.01227C21.8555 6.52732 21.6174 6.08186 21.2678 5.73223C20.9181 5.3826 20.4727 5.1445 19.9877 5.04804ZM19.3087 7.03806C19.4 7.00022 19.5006 6.99032 19.5975 7.00961C19.6945 7.0289 19.7836 7.07652 19.8536 7.14645C19.9235 7.21638 19.9711 7.30547 19.9904 7.40246C20.0097 7.49944 19.9998 7.59998 19.9619 7.69134C19.9241 7.78271 19.86 7.8608 19.7778 7.91574C19.6956 7.97068 19.5989 8 19.5 8H19V7.5C19 7.40111 19.0293 7.30444 19.0843 7.22222C19.1392 7.13999 19.2173 7.07591 19.3087 7.03806Z" fill="white"/>
<path fill-rule="evenodd" clip-rule="evenodd" d="M6 14.5C6 13.1193 7.11929 12 8.5 12C9.88071 12 11 13.1193 11 14.5V19.5C11 20.8807 9.88071 22 8.5 22C7.11929 22 6 20.8807 6 19.5V14.5ZM8.5 14C8.22386 14 8 14.2239 8 14.5V19.5C8 19.7761 8.22386 20 8.5 20C8.77614 20 9 19.7761 9 19.5V14.5C9 14.2239 8.77614 14 8.5 14Z" fill="white"/>
<path fill-rule="evenodd" clip-rule="evenodd" d="M2.5 12C2.00555 12 1.5222 12.1466 1.11108 12.4213C0.699952 12.696 0.379521 13.0865 0.190302 13.5433C0.0010832 14.0001 -0.0484251 14.5028 0.0480379 14.9877C0.144501 15.4727 0.382604 15.9181 0.732234 16.2678C1.08186 16.6174 1.52732 16.8555 2.01228 16.952C2.49723 17.0484 2.9999 16.9989 3.45671 16.8097C3.91352 16.6205 4.30397 16.3 4.57867 15.8889C4.85338 15.4778 5 14.9945 5 14.5V13C5 12.4477 4.55229 12 4 12H2.5ZM2.22222 14.0843C2.30444 14.0293 2.40111 14 2.5 14H3V14.5C3 14.5989 2.97068 14.6956 2.91574 14.7778C2.8608 14.86 2.78271 14.9241 2.69134 14.9619C2.59998 14.9998 2.49944 15.0097 2.40246 14.9904C2.30547 14.9711 2.21638 14.9235 2.14645 14.8536C2.07652 14.7836 2.0289 14.6945 2.00961 14.5975C1.99032 14.5006 2.00022 14.4 2.03806 14.3087C2.07591 14.2173 2.13999 14.1392 2.22222 14.0843Z" fill="white"/>
<path fill-rule="evenodd" clip-rule="evenodd" d="M12 13.5C12 12.1193 13.1193 11 14.5 11H19.5C20.8807 11 22 12.1193 22 13.5C22 14.8807 20.8807 16 19.5 16H14.5C13.1193 16 12 14.8807 12 13.5ZM14.5 13C14.2239 13 14 13.2239 14 13.5C14 13.7761 14.2239 14 14.5 14H19.5C19.7761 14 20 13.7761 20 13.5C20 13.2239 19.7761 13 19.5 13H14.5Z" fill="white"/>
<path fill-rule="evenodd" clip-rule="evenodd" d="M13 17C12.4477 17 12 17.4477 12 18V19.5C12 19.9945 12.1466 20.4778 12.4213 20.8889C12.696 21.3 13.0865 21.6205 13.5433 21.8097C14.0001 21.9989 14.5028 22.0484 14.9877 21.952C15.4727 21.8555 15.9181 21.6174 16.2678 21.2678C16.6174 20.9181 16.8555 20.4727 16.952 19.9877C17.0484 19.5028 16.9989 19.0001 16.8097 18.5433C16.6205 18.0865 16.3 17.696 15.8889 17.4213C15.4778 17.1466 14.9945 17 14.5 17H13ZM14.5 19H14V19.5C14 19.5989 14.0293 19.6956 14.0843 19.7778C14.1392 19.86 14.2173 19.9241 14.3087 19.9619C14.4 19.9998 14.5006 20.0097 14.5975 19.9904C14.6945 19.9711 14.7836 19.9235 14.8536 19.8536C14.9235 19.7836 14.9711 19.6945 14.9904 19.5975C15.0097 19.5006 14.9998 19.4 14.9619 19.3087C14.9241 19.2173 14.86 19.1392 14.7778 19.0843C14.6956 19.0293 14.5989 19 14.5 19Z" fill="white"/>
<path fill-rule="evenodd" clip-rule="evenodd" d="M0 8.5C0 7.11929 1.11929 6 2.5 6H7.5C8.88071 6 10 7.11929 10 8.5C10 9.88071 8.88071 11 7.5 11H2.5C1.11929 11 0 9.88071 0 8.5ZM2.5 8C2.22386 8 2 8.22386 2 8.5C2 8.77614 2.22386 9 2.5 9H7.5C7.77614 9 8 8.77614 8 8.5C8 8.22386 7.77614 8 7.5 8H2.5Z" fill="white"/>
<path fill-rule="evenodd" clip-rule="evenodd" d="M8.45671 0.190302C7.99989 0.0010832 7.49723 -0.0484251 7.01227 0.0480379C6.52732 0.144501 6.08187 0.382603 5.73223 0.732234C5.3826 1.08187 5.1445 1.52732 5.04804 2.01228C4.95157 2.49723 5.00108 2.99989 5.1903 3.45671C5.37952 3.91353 5.69995 4.30397 6.11108 4.57867C6.5222 4.85338 7.00555 5 7.5 5H9C9.55229 5 10 4.55229 10 4V2.5C10 2.00555 9.85338 1.5222 9.57868 1.11108C9.30397 0.699952 8.91352 0.379521 8.45671 0.190302ZM7.40246 2.00961C7.49945 1.99032 7.59998 2.00022 7.69134 2.03806C7.78271 2.07591 7.8608 2.13999 7.91574 2.22222C7.97068 2.30444 8 2.40111 8 2.5V3H7.5C7.40111 3 7.30444 2.97068 7.22222 2.91574C7.13999 2.86079 7.0759 2.78271 7.03806 2.69134C7.00022 2.59998 6.99032 2.49945 7.00961 2.40246C7.0289 2.30547 7.07652 2.21637 7.14645 2.14645C7.21637 2.07652 7.30547 2.0289 7.40246 2.00961Z" fill="white"/>
</svg>
