<svg width="22" height="21" viewBox="0 0 22 21" fill="none" xmlns="http://www.w3.org/2000/svg">
<path fill-rule="evenodd" clip-rule="evenodd" d="M21.9448 2.3279L21.9473 2.32053L21.9486 2.31659C22.0823 1.91561 21.9496 1.47353 21.6168 1.21284C21.2842 0.952201 20.8234 0.928932 20.4661 1.1545L20.4642 1.15572L20.4518 1.16342C20.4401 1.17063 20.4219 1.18185 20.3977 1.19652C20.3493 1.2259 20.2773 1.26889 20.1869 1.32096C20.0052 1.42561 19.7537 1.56432 19.4727 1.70193C19.1895 1.84067 18.8908 1.97115 18.6127 2.06515C18.5004 2.1031 18.4009 2.13182 18.3144 2.15279C16.5349 0.74857 14.2934 0.693118 12.5755 1.58814C11.0241 2.39646 9.90172 3.98025 9.89112 5.97359C7.16427 5.759 4.5321 4.44425 2.76347 2.35405C2.55025 2.10206 2.22641 1.97153 1.89805 2.00521C1.56968 2.0389 1.27908 2.23245 1.12146 2.52248C-1.36741 7.10201 0.550455 12.7954 4.91186 15.2016C3.75236 15.7814 2.40598 16.0629 1.04549 16.001C0.596377 15.9806 0.188848 16.2624 0.0494034 16.6898C-0.0900414 17.1172 0.0728822 17.5852 0.447624 17.8335C9.6486 23.9319 21.3643 16.3194 20.0565 5.72867C20.6424 5.04364 21.0842 4.26636 21.3853 3.65317C21.5679 3.28112 21.7066 2.95308 21.8003 2.71636C21.8472 2.59772 21.8831 2.50126 21.9079 2.43279C21.9203 2.39853 21.9299 2.37121 21.9367 2.35156L21.9448 2.3279ZM13.4996 3.36184C12.3849 3.94266 11.6282 5.1586 11.9779 6.79046C12.0401 7.08072 11.9701 7.38361 11.7869 7.61717C11.6037 7.85074 11.3262 7.99083 11.0295 7.99956C7.8533 8.09298 4.68323 6.90756 2.33194 4.77793C1.17223 8.55839 3.34471 12.8594 7.28743 14.0422C7.63595 14.1467 7.90018 14.4323 7.97734 14.7879C8.0545 15.1435 7.93243 15.513 7.65859 15.7526C6.72719 16.5675 5.6254 17.167 4.44473 17.5425C11.6551 19.7458 19.3026 13.6202 18.0126 5.55798C17.962 5.24135 18.0662 4.91963 18.293 4.69289C18.4741 4.51173 18.6445 4.30781 18.8029 4.09234C18.5442 4.15602 18.2701 4.19999 18.0001 4.19999C17.7468 4.19999 17.5029 4.10387 17.3178 3.93105C16.1476 2.83893 14.6361 2.76976 13.4996 3.36184Z" fill="white"/>
</svg>
